<svg xmlns="http://www.w3.org/2000/svg" version="1.0" width="1280.000000pt" height="657.000000pt" viewBox="0 0 1280.000000 657.000000" preserveAspectRatio="xMidYMid meet">
  <g transform="translate(0.000000,657.000000) scale(0.100000,-0.100000)" fill="currentColor" stroke="none">
    <path d="M8227 6564 c-14 -14 -202 -45 -402 -65 -82 -8 -362 -13 -875 -14 -755 -2 -867 -6 -1110 -41 -456 -66 -793 -214 -1053 -463 -96 -92 -198 -214 -246 -293 -12 -21 -30 -38 -38 -38 -9 0 -34 15 -57 34 -76 62 -230 158 -341 212 -605 295 -1310 231 -2165 -197 -335 -168 -607 -331 -1141 -684 -168 -112 -326 -212 -350 -222 -24 -11 -65 -42 -90 -69 -69 -75 -103 -157 -139 -336 -9 -45 -15 -58 -30 -58 -22 0 -30 -19 -30 -72 0 -26 6 -45 16 -53 28 -20 9 -49 -44 -68 -26 -9 -57 -17 -68 -17 -12 0 -32 -9 -45 -19 -22 -18 -23 -22 -10 -43 8 -13 126 -203 261 -423 136 -220 449 -724 697 -1120 683 -1094 936 -1505 1093 -1785 216 -385 295 -505 426 -656 l54 -62 307 148 c680 326 1355 610 2451 1029 233 89 546 215 695 280 298 130 370 157 527 203 147 42 330 48 553 19 189 -25 315 -27 428 -5 175 32 293 79 465 185 66 39 176 107 246 149 262 160 409 199 1007 265 174 20 510 60 746 90 900 114 1529 186 2260 259 l520 51 6 85 c4 47 16 123 28 169 24 96 26 140 9 163 -18 22 -283 229 -431 336 -163 118 -235 163 -255 160 -15 -3 -17 7 -14 82 3 51 12 107 24 140 46 128 46 150 -1 150 -18 0 -39 12 -61 35 -36 37 -58 43 -89 23 -16 -10 -50 12 -252 159 -470 341 -910 646 -1799 1243 -942 633 -1541 1041 -1631 1112 -39 30 -42 31 -52 22z m64 -71 c30 -20 133 -91 229 -158 217 -151 683 -466 1425 -965 831 -559 1288 -875 1733 -1198 202 -147 248 -190 225 -213 -18 -17 -364 -52 -673 -68 -107 -6 -361 -15 -565 -21 -925 -25 -1286 -58 -1690 -155 -590 -141 -1011 -391 -1347 -800 -33 -41 -65 -75 -70 -75 -20 0 -67 37 -133 106 -59 62 -76 74 -113 80 -37 6 -61 23 -180 132 -288 265 -607 568 -1537 1462 -362 347 -652 624 -835 794 -190 178 -221 209 -215 225 13 32 122 175 193 252 182 196 412 339 686 428 358 116 715 148 1526 137 597 -9 955 9 1200 58 36 8 70 14 76 15 7 0 36 -15 65 -36z m-4754 -458 c275 -34 536 -132 775 -291 134 -89 362 -301 1583 -1474 788 -756 1161 -1108 1380 -1302 6 -5 2 -20 -10 -41 -34 -58 -46 -64 -117 -56 -34 4 -153 11 -263 14 -562 20 -1140 -102 -1820 -384 -273 -114 -788 -369 -1345 -666 -507 -271 -957 -496 -985 -493 -40 6 -368 507 -1063 1623 -531 853 -834 1324 -1070 1660 -51 72 -92 137 -92 146 0 24 687 478 1025 676 803 471 1438 658 2002 588z m-2977 -1412 c241 -344 537 -804 1110 -1723 445 -716 568 -907 828 -1299 l195 -293 -12 -142 c-14 -167 -39 -402 -46 -433 -3 -13 -12 -23 -20 -23 -28 0 -36 -38 -29 -134 7 -97 -1 -120 -28 -88 -15 18 -437 676 -863 1347 -349 549 -844 1342 -1165 1865 -150 245 -279 450 -288 456 -17 12 0 30 18 19 12 -8 30 36 30 74 0 16 -7 34 -16 42 -12 10 -14 23 -9 58 13 90 47 207 77 264 32 59 97 127 122 127 7 0 51 -53 96 -117z m11415 -873 l0 -145 28 -3 c25 -3 41 -32 17 -32 -13 0 -13 -68 1 -150 5 -36 34 -139 64 -230 30 -91 55 -178 57 -195 l3 -30 -75 -7 c-41 -4 -435 -12 -875 -18 -760 -10 -933 -16 -1210 -40 -853 -74 -1376 -255 -1719 -592 -55 -54 -105 -98 -111 -98 -14 0 -42 53 -86 162 -65 163 -168 194 -406 122 -101 -30 -172 -44 -190 -37 -31 12 10 108 88 210 26 34 57 89 69 121 16 45 44 84 116 165 325 367 768 604 1356 726 365 76 680 103 1485 126 703 20 1032 41 1273 79 47 8 92 13 100 12 13 -1 15 -25 15 -146z m-4960 -911 c186 -14 208 -19 215 -49 5 -23 12 -25 63 -28 39 -2 60 -8 63 -17 4 -8 -43 -90 -106 -186 -158 -241 -196 -338 -208 -538 l-7 -106 -65 -2 c-240 -9 -515 -26 -630 -39 -776 -87 -1452 -326 -2330 -822 -63 -36 -263 -151 -445 -255 -563 -324 -870 -486 -887 -469 -6 6 1 47 16 108 31 116 35 220 10 239 -14 10 -15 21 -5 96 8 62 51 496 51 516 0 1 118 60 263 131 144 71 453 231 687 356 788 421 1268 651 1664 798 571 212 1150 305 1651 267z"/>
  </g>
</svg>
