<svg width="17" height="15" viewBox="0 0 17 15" fill="none" xmlns="http://www.w3.org/2000/svg">
<g id="commentary 1" clip-path="url(#clip0_2_8894)">
<path id="Vector" d="M16.3028 12.9202C16.2875 12.9119 14.8661 12.1483 13.8569 11.0924C14.5707 10.0187 14.9464 8.78633 14.9464 7.50665C14.9464 5.705 14.2054 4.01116 12.8599 2.7372C11.5145 1.46336 9.72565 0.761719 7.82304 0.761719C5.92032 0.761719 4.13145 1.46336 2.78614 2.7372C1.44071 4.01116 0.699707 5.705 0.699707 7.50665C0.699707 9.30818 1.44071 11.002 2.78614 12.276C4.13145 13.5499 5.92032 14.2515 7.82304 14.2515C9.03746 14.2515 10.2267 13.9594 11.2806 13.4047C13.3577 14.4981 16.0849 13.7644 16.2045 13.7313C16.3852 13.6813 16.5167 13.5337 16.5381 13.3567C16.5596 13.1795 16.4669 13.0076 16.3028 12.9202ZM11.5403 12.5192C11.3893 12.4258 11.195 12.423 11.041 12.512C10.0743 13.0704 8.96156 13.3657 7.82304 13.3657C4.41112 13.3657 1.63518 10.7373 1.63518 7.50665C1.63518 4.27586 4.41112 1.64749 7.82304 1.64749C11.235 1.64749 14.0108 4.27586 14.0108 7.50665C14.0108 8.71904 13.6229 9.88256 12.889 10.8713C12.7689 11.033 12.7766 11.2506 12.9078 11.4043C13.4885 12.0851 14.2379 12.6651 14.8346 13.0709C13.9037 13.167 12.5652 13.1526 11.5403 12.5192Z" fill="currentColor"/>
<path id="Vector_2" d="M10.994 9.03247H4.65194C4.39354 9.03247 4.1842 9.2308 4.1842 9.47536C4.1842 9.71992 4.39354 9.91825 4.65194 9.91825H10.994C11.2523 9.91825 11.4618 9.71992 11.4618 9.47536C11.4618 9.2308 11.2523 9.03247 10.994 9.03247Z" fill="currentColor"/>
<path id="Vector_3" d="M10.994 7.06372H4.65194C4.39354 7.06372 4.1842 7.26205 4.1842 7.50672C4.1842 7.75128 4.39354 7.94961 4.65194 7.94961H10.994C11.2523 7.94961 11.4618 7.75128 11.4618 7.50672C11.4618 7.26205 11.2523 7.06372 10.994 7.06372Z" fill="currentColor"/>
<path id="Vector_4" d="M10.994 5.09509H4.65194C4.39354 5.09509 4.1842 5.29342 4.1842 5.53798C4.1842 5.78265 4.39354 5.98087 4.65194 5.98087H10.994C11.2523 5.98087 11.4618 5.78265 11.4618 5.53798C11.4618 5.29342 11.2523 5.09509 10.994 5.09509Z" fill="currentColor"/>
</g>
<defs>
<clipPath id="clip0_2_8894">
<rect width="15.8415" height="15" fill="white" transform="translate(0.699707)"/>
</clipPath>
</defs>
</svg>
