<svg width="20" height="20" viewBox="0 0 20 20" fill="currentColor" xmlns="http://www.w3.org/2000/svg">
<g id="favorite 1">
<g id="Group">
<path id="Vector" d="M17.5663 0H2.43384C1.89536 0 1.45728 0.438086 1.45728 0.976523V18.6315C1.45728 19.0939 1.68817 19.5214 2.07497 19.7749C2.46259 20.0289 2.94669 20.0692 3.36985 19.8851L9.9222 17.0345C9.97173 17.0129 10.0285 17.0129 10.078 17.0345L16.6303 19.8851C17.5333 20.2778 18.5429 19.6154 18.5429 18.6315V0.976523C18.5428 0.438086 18.1047 0 17.5663 0V0ZM17.371 18.6315C17.371 18.7725 17.2271 18.8669 17.0978 18.8105L10.5454 15.96C10.1988 15.8092 9.80126 15.8093 9.45466 15.96L2.90231 18.8105C2.77302 18.8668 2.62911 18.7726 2.62911 18.6315V1.17184H17.3709V18.6315H17.371Z"/>
</g>
</g>
</svg>
