<svg width="16" height="16" viewBox="0 0 16 16" fill="none" xmlns="http://www.w3.org/2000/svg">
  <path d="M7.99999 2C6.87675 2 5.80055 2.25458 4.80145 2.68042L5.56313 3.44209C6.33494 3.16249 7.15314 3 7.99999 3C11.0928 3 13.8726 5.00246 14.9698 8.00006C14.5517 9.1424 13.8868 10.1371 13.0557 10.9347L13.7589 11.6379C14.7348 10.697 15.5092 9.51981 15.9733 8.16168C16.0089 8.05671 16.0089 7.94342 15.9733 7.83845C14.7799 4.34622 11.5757 2 7.99999 2Z" fill="#919193" fill-opacity="0.5"/>
  <path d="M9.98648 7.86534L10.8883 8.76715C10.9539 8.52082 11.0001 8.26685 11.0001 8.00005C11.0001 6.34574 9.65442 5 8.00008 5C7.73327 5 7.4793 5.04622 7.23297 5.11183L8.13478 6.01364C9.12868 6.08126 9.91886 6.87144 9.98648 7.86534Z" fill="#919193" fill-opacity="0.5"/>
  <path d="M0.999848 1.70707L3.02733 3.73455C1.68453 4.75008 0.606527 6.14168 0.0266771 7.8385C-0.00897376 7.94348 -0.00897376 8.05676 0.0266771 8.16174C1.22005 11.654 4.42419 14.0002 7.99994 14.0002C9.48636 14.0002 10.8902 13.5634 12.1287 12.836L14.293 15.0002L15 14.2932L1.70686 1L0.999819 1.70704L0.999848 1.70707ZM7.99997 13.0002C4.90717 13.0002 2.12732 10.9978 1.03013 8.00015C1.57128 6.52153 2.54375 5.31884 3.74105 4.44827L5.55986 6.26707C5.21031 6.75762 4.99992 7.35326 4.99992 8.00012C4.99992 9.65443 6.34563 11.0002 7.99997 11.0002C8.64682 11.0002 9.24247 10.7898 9.73302 10.4402L11.397 12.1042C10.3643 12.6638 9.21399 13.0002 7.99997 13.0002ZM6.28327 6.99051L9.00963 9.71688C8.71214 9.89255 8.3698 10.0002 7.99997 10.0002C6.89691 10.0002 5.99995 9.10321 5.99995 8.00018C5.99995 7.63034 6.1076 7.288 6.28327 6.99051Z" fill="#919193" fill-opacity="0.5"/>
</svg>
