<svg width="14" height="15" viewBox="0 0 14 15" fill="none" xmlns="http://www.w3.org/2000/svg">
<g id="image 12" clip-path="url(#clip0_152_316)">
<g id="Group">
<g id="Group_2">
<path id="Vector" d="M12.211 0.811035H1.78896C0.802512 0.811035 0 1.61357 0 2.60003V13.0221C0 14.0085 0.802512 14.811 1.78896 14.811H12.211C13.1975 14.811 14 14.0085 14 13.022V2.60003C14 1.61357 13.1975 0.811035 12.211 0.811035ZM13.1754 13.0221C13.1754 13.5538 12.7428 13.9864 12.211 13.9864H1.78896C1.25721 13.9864 0.824605 13.5538 0.824605 13.0221V11.518L3.53861 9.20877C3.63765 9.12449 3.78213 9.1237 3.8821 9.20671L5.58217 10.6184C5.7461 10.7545 5.98672 10.7434 6.13736 10.5926L10.1768 6.54693C10.2498 6.47379 10.335 6.46668 10.3794 6.46895C10.4237 6.47122 10.5078 6.48702 10.5729 6.56728L13.1754 9.77169V13.0221H13.1754ZM13.1754 8.46359L11.213 6.04734C11.0184 5.80769 10.73 5.66119 10.4216 5.64536C10.1135 5.62977 9.8114 5.74576 9.59328 5.96424L5.81962 9.74372L4.40896 8.57234C3.99993 8.23268 3.40919 8.2362 3.00423 8.58076L0.824605 10.4353V2.60003C0.824605 2.06827 1.25721 1.63567 1.78896 1.63567H12.211C12.7428 1.63567 13.1754 2.06827 13.1754 2.60003V8.46359Z" fill="#44996B"/>
</g>
</g>
<g id="Group_3">
<g id="Group_4">
<path id="Vector_2" d="M4.40719 2.53345C3.31084 2.53345 2.41895 3.4254 2.41895 4.52169C2.41895 5.61801 3.31087 6.50994 4.40719 6.50994C5.50351 6.50994 6.39544 5.61801 6.39544 4.52169C6.39544 3.42537 5.50354 2.53345 4.40719 2.53345ZM4.40719 5.68533C3.76554 5.68533 3.24355 5.16331 3.24355 4.52169C3.24355 3.88004 3.76554 3.35805 4.40719 3.35805C5.04884 3.35805 5.57083 3.88007 5.57083 4.52169C5.57083 5.16331 5.04884 5.68533 4.40719 5.68533Z" fill="#44996B"/>
</g>
</g>
</g>
<defs>
<clipPath id="clip0_152_316">
<rect width="14" height="14" fill="white" transform="translate(0 0.811035)"/>
</clipPath>
</defs>
</svg>
