<svg width="14" height="13" viewBox="0 0 14 13" fill="none" xmlns="http://www.w3.org/2000/svg">
<g id="dislike 3" clip-path="url(#clip0_2_8881)">
<path id="Vector" d="M0.972605 13H2.36176C2.89797 13 3.33416 12.5748 3.33416 12.0521V11.8538C4.17432 12.2709 6.08246 13 9.18582 13H10.0749C11.3635 13 12.4564 12.1019 12.6754 10.8647L13.2977 7.34392C13.43 6.59262 13.2171 5.82887 12.7148 5.24712C12.2125 4.66646 11.4768 4.33333 10.6972 4.33333H8.17674C8.33399 3.92167 8.49125 3.3215 8.49125 2.57292C8.49125 0.537873 7.30991 -1.90735e-06 6.68535 -1.90735e-06C5.5318 -1.90735e-06 5.43511 1.04867 5.43511 2.03125C5.43511 3.2305 4.05541 4.22717 3.32694 4.67025C3.28971 4.18058 2.87352 3.79167 2.36176 3.79167H0.972605C0.436392 3.79167 0.000198364 4.21687 0.000198364 4.73958V12.0521C0.000198364 12.5748 0.436392 13 0.972605 13ZM6.2686 2.03125C6.2686 0.812498 6.48031 0.812498 6.68535 0.812498C7.07653 0.812498 7.65775 1.28158 7.65775 2.57292C7.65775 3.77325 7.17544 4.50883 7.17211 4.51425C7.08709 4.63883 7.07876 4.79917 7.15155 4.93133C7.22378 5.0635 7.36548 5.14583 7.51884 5.14583H10.6972C11.2307 5.14583 11.7335 5.37333 12.0769 5.77037C12.4209 6.16796 12.5665 6.69121 12.4759 7.20525L11.8535 10.7261C11.7041 11.5732 10.9562 12.1875 10.0749 12.1875H9.18582C5.40566 12.1875 3.51197 11.0348 3.33416 10.9205V5.60679C3.79703 5.36737 6.2686 3.99696 6.2686 2.03125ZM0.83369 4.73958C0.83369 4.66483 0.895924 4.60417 0.972605 4.60417H2.36176C2.43844 4.60417 2.50067 4.66483 2.50067 4.73958V12.0521C2.50067 12.1257 2.43733 12.1875 2.36176 12.1875H0.972605C0.895924 12.1875 0.83369 12.1268 0.83369 12.0521V4.73958Z" fill="black"/>
</g>
<defs>
<clipPath id="clip0_2_8881">
<rect width="13.3358" height="13" fill="white" transform="matrix(-1 0 0 -1 13.336 13)"/>
</clipPath>
</defs>
</svg>
