<svg width="15" height="15" viewBox="0 0 15 15" fill="none" xmlns="http://www.w3.org/2000/svg">
<g id="link 3" clip-path="url(#clip0_35_265)">
<g id="Group">
<g id="Group_2">
<path id="Vector" d="M9.15216 5.84661C8.97448 5.66787 8.77747 5.50943 8.56478 5.37419C8.00144 5.01347 7.34654 4.82178 6.67761 4.82178C5.74915 4.82006 4.85842 5.18895 4.20305 5.84661L1.02362 9.02853C0.369366 9.68405 0.00163941 10.5722 0.00105358 11.4983C-0.000176667 13.431 1.56552 14.9987 3.49818 14.9999C4.4252 15.0032 5.31511 14.636 5.97025 13.9801L8.59477 11.3556C8.64246 11.3083 8.66909 11.2438 8.66871 11.1767C8.66792 11.0386 8.55535 10.9274 8.4173 10.9282H8.31732C7.76898 10.9301 7.22554 10.8248 6.71762 10.6182C6.62403 10.5797 6.51648 10.6015 6.44518 10.6732L4.55801 12.5629C3.972 13.1489 3.0219 13.1489 2.43589 12.5629C1.84988 11.9769 1.84988 11.0268 2.43589 10.4408L5.62783 7.25135C6.21337 6.66654 7.16192 6.66654 7.74746 7.25135C8.14207 7.62274 8.75761 7.62274 9.15219 7.25135C9.32197 7.08143 9.4249 6.85606 9.44215 6.61645C9.4604 6.33013 9.3548 6.04972 9.15216 5.84661Z" fill="#44996B"/>
</g>
</g>
<g id="Group_3">
<g id="Group_4">
<path id="Vector_2" d="M13.974 1.02524C12.6073 -0.341421 10.3915 -0.341421 9.02487 1.02524L6.40283 3.64476C6.33083 3.71711 6.31007 3.82593 6.35034 3.91972C6.39015 4.01377 6.48318 4.07414 6.58529 4.07218H6.67776C7.22546 4.07119 7.76803 4.17731 8.27498 4.38463C8.36856 4.42315 8.47612 4.40142 8.54742 4.32965L10.4296 2.44998C11.0156 1.86397 11.9657 1.86397 12.5517 2.44998C13.1377 3.03599 13.1377 3.98609 12.5517 4.5721L10.2071 6.91417L10.1871 6.93667L9.36726 7.75153C8.78172 8.33634 7.83317 8.33634 7.24763 7.75153C6.85302 7.38014 6.23748 7.38014 5.84289 7.75153C5.67204 7.92274 5.56902 8.15007 5.55294 8.39141C5.53466 8.67773 5.64026 8.95814 5.84289 9.16128C6.13221 9.45182 6.4707 9.68876 6.84271 9.86114C6.8952 9.88613 6.94769 9.90613 7.00018 9.92863C7.05267 9.95113 7.10765 9.96861 7.16014 9.98862C7.21263 10.0086 7.26761 10.0261 7.3201 10.0411L7.46758 10.0811C7.56756 10.1061 7.66756 10.1261 7.77002 10.1436C7.89345 10.1619 8.01777 10.1736 8.14246 10.1786H8.31742H8.33242L8.48239 10.1611C8.53737 10.1586 8.59487 10.1461 8.65987 10.1461H8.74484L8.91731 10.1211L8.99731 10.1061L9.14227 10.0761H9.16978C9.78376 9.92189 10.3444 9.60399 10.792 9.15627L13.9739 5.97435C15.3406 4.60769 15.3406 2.3919 13.974 1.02524Z" fill="#44996B"/>
</g>
</g>
</g>
<defs>
<clipPath id="clip0_35_265">
<rect width="15" height="15" fill="white"/>
</clipPath>
</defs>
</svg>
