<svg width="18" height="18" viewBox="0 0 18 18" fill="none" xmlns="http://www.w3.org/2000/svg">
<g id="notes 1" clip-path="url(#clip0_35_168)">
<path id="Vector" d="M14.1529 1.28824H12.7058V0.529412C12.7058 0.237035 12.4688 0 12.1764 0C11.884 0 11.647 0.237035 11.647 0.529412V1.28824H9.52933V0.529412C9.52933 0.237035 9.29229 0 8.99991 0C8.70754 0 8.4705 0.237035 8.4705 0.529412V1.28824H6.35286V0.529412C6.35286 0.237035 6.11582 0 5.82344 0C5.53107 0 5.29403 0.237035 5.29403 0.529412V1.28824H3.84697C3.16583 1.28824 2.61168 1.84239 2.61168 2.52353V16.7647C2.61168 17.4458 3.16583 18 3.84697 18H14.1529C14.834 18 15.3882 17.4458 15.3882 16.7647V2.52353C15.3882 1.84239 14.834 1.28824 14.1529 1.28824ZM14.3293 16.7647C14.3293 16.862 14.2502 16.9412 14.1529 16.9412H3.84697C3.74967 16.9412 3.6705 16.862 3.6705 16.7647V2.52353C3.6705 2.42622 3.74967 2.34706 3.84697 2.34706H5.29403V3.10588C5.29403 3.39826 5.53107 3.63529 5.82344 3.63529C6.11582 3.63529 6.35286 3.39826 6.35286 3.10588V2.34706H8.4705V3.10588C8.4705 3.39826 8.70754 3.63529 8.99991 3.63529C9.29229 3.63529 9.52933 3.39826 9.52933 3.10588V2.34706H11.647V3.10588C11.647 3.39826 11.884 3.63529 12.1764 3.63529C12.4688 3.63529 12.7058 3.39826 12.7058 3.10588V2.34706H14.1529C14.2502 2.34706 14.3293 2.42622 14.3293 2.52353V16.7647Z" fill="#44996B"/>
<path id="Vector_2" d="M12.1766 6.43011H5.82362C5.53125 6.43011 5.29421 6.66715 5.29421 6.95953C5.29421 7.2519 5.53125 7.48894 5.82362 7.48894H12.1766C12.4689 7.48894 12.706 7.2519 12.706 6.95953C12.706 6.66715 12.4689 6.43011 12.1766 6.43011Z" fill="#44996B"/>
<path id="Vector_3" d="M12.1766 9.61615H5.82362C5.53125 9.61615 5.29421 9.85319 5.29421 10.1456C5.29421 10.4379 5.53125 10.675 5.82362 10.675H12.1766C12.4689 10.675 12.706 10.4379 12.706 10.1456C12.706 9.85319 12.4689 9.61615 12.1766 9.61615Z" fill="#44996B"/>
<path id="Vector_4" d="M12.1766 12.8021H5.82362C5.53125 12.8021 5.29421 13.0391 5.29421 13.3315C5.29421 13.6239 5.53125 13.8609 5.82362 13.8609H12.1766C12.4689 13.8609 12.706 13.6239 12.706 13.3315C12.706 13.0391 12.4689 12.8021 12.1766 12.8021Z" fill="#44996B"/>
</g>
<defs>
<clipPath id="clip0_35_168">
<rect width="18" height="18" fill="white"/>
</clipPath>
</defs>
</svg>
