<svg width="32" height="42" viewBox="0 0 32 42" fill="none" xmlns="http://www.w3.org/2000/svg">
<path id="Vector" d="M2.76915 20.85C2.76915 21.5423 2.82237 22.2262 2.9288 22.9019C3.0352 23.5775 3.18455 24.2346 3.37685 24.8731C3.48455 25.2038 3.48777 25.5378 3.3865 25.875C3.2852 26.2121 3.11277 26.5153 2.8692 26.7846C2.69227 26.9999 2.47047 27.0986 2.2038 27.0807C1.93717 27.0627 1.74615 26.932 1.63075 26.6884C1.22305 25.7397 0.932666 24.7781 0.759599 23.8038C0.586533 22.8294 0.5 21.8448 0.5 20.85C0.5 16.5987 2.0205 12.9493 5.0615 9.9019C8.10253 6.85447 11.7487 5.33075 15.9999 5.33075H18.8808L15.3115 1.7615C15.1089 1.55894 15.0076 1.31918 15.0076 1.04225C15.0076 0.765352 15.1089 0.519218 15.3115 0.303851C15.5269 0.101285 15.7782 0 16.0654 0C16.3525 0 16.5974 0.101285 16.7999 0.303851L21.9807 5.4538C22.2679 5.741 22.4114 6.07499 22.4114 6.45575C22.4114 6.83652 22.2679 7.17048 21.9807 7.45765L16.85 12.6077C16.6474 12.8102 16.3942 12.9115 16.0904 12.9115C15.7865 12.9115 15.5269 12.8102 15.3115 12.6077C15.1089 12.3923 15.0076 12.1358 15.0076 11.8384C15.0076 11.541 15.1089 11.2846 15.3115 11.0692L18.8 7.59995H15.9999C12.3563 7.59995 9.24032 8.89738 6.65185 11.4923C4.06338 14.0871 2.76915 17.2064 2.76915 20.85ZM29.2307 20.7615C29.2307 20.0487 29.1807 19.3512 29.0807 18.6691C28.9807 17.9871 28.8282 17.3269 28.623 16.6884C28.5153 16.3576 28.5038 16.0269 28.5884 15.6961C28.673 15.3653 28.8269 15.0692 29.05 14.8077C29.2397 14.6051 29.4698 14.5128 29.7403 14.5308C30.0108 14.5487 30.2037 14.673 30.3191 14.9038C30.7268 15.8525 31.0256 16.8173 31.2153 17.798C31.405 18.7788 31.4999 19.7666 31.4999 20.7615C31.4999 25.0128 29.9794 28.6621 26.9384 31.7096C23.8974 34.757 20.2512 36.2807 15.9999 36.2807H13.0576L16.6076 39.85C16.8102 40.0525 16.9147 40.2923 16.9211 40.5692C16.9275 40.8461 16.823 41.0858 16.6076 41.2884C16.3922 41.5038 16.1442 41.6115 15.8634 41.6115C15.5826 41.6115 15.3346 41.5038 15.1192 41.2884L9.9577 36.1576C9.6705 35.8705 9.5269 35.5365 9.5269 35.1557C9.5269 34.7749 9.6705 34.4346 9.9577 34.1346L15.1192 28.9731C15.3218 28.7705 15.5666 28.666 15.8538 28.6596C16.141 28.6532 16.3922 28.7577 16.6076 28.9731C16.823 29.1884 16.9307 29.4365 16.9307 29.7173C16.9307 29.998 16.823 30.2461 16.6076 30.4615L13.0576 34.0115H15.9999C19.6436 34.0115 22.7596 32.7141 25.348 30.1192C27.9365 27.5243 29.2307 24.4051 29.2307 20.7615Z" fill="#F8F8F8"/>
</svg>
