<svg width="15" height="15" viewBox="0 0 15 15" fill="none" xmlns="http://www.w3.org/2000/svg">
<g id="renew 1" clip-path="url(#clip0_35_176)">
<path id="Vector" d="M14.0956 7.83175C13.8547 7.80291 13.636 7.97503 13.6071 8.21604C13.246 11.242 10.6688 13.5241 7.61246 13.5241C4.86352 13.5241 2.50275 11.678 1.79266 9.10523L2.31839 9.39396C2.53114 9.5108 2.79835 9.43298 2.91508 9.22035C3.03192 9.00761 2.95422 8.7404 2.74147 8.62355L1.39292 7.8829C1.18041 7.76618 0.913423 7.84365 0.796466 8.05605L0.054786 9.40288C-0.0622853 9.61551 0.01519 9.88273 0.227704 9.9998C0.447198 10.1025 0.698048 10.052 0.824618 9.82688L0.996506 9.51481C1.86727 12.3712 4.52638 14.403 7.61246 14.403C11.1136 14.403 14.0659 11.7879 14.4797 8.32018C14.5086 8.07917 14.3365 7.86047 14.0956 7.83175Z" fill="#B6B6B6"/>
<path id="Vector_2" d="M14.7341 4.33876C14.5114 4.24274 14.2528 4.34539 14.1566 4.56832L14.0182 4.88921C13.5855 3.83122 12.891 2.88446 11.9966 2.15148C10.7651 1.14201 9.20805 0.586182 7.6122 0.586182C6.01634 0.586182 4.45928 1.14201 3.22769 2.15148C2.01315 3.14687 1.16675 4.53616 0.844494 6.06324C0.79437 6.3007 0.946345 6.53381 1.18381 6.58394C1.42092 6.63406 1.65438 6.4822 1.70439 6.24474C1.98557 4.91255 2.72439 3.7003 3.78478 2.83113C4.85959 1.95018 6.2189 1.46507 7.6122 1.46507C9.00538 1.46507 10.3647 1.95018 11.4395 2.83113C12.2656 3.50816 12.8964 4.39357 13.2679 5.38164L12.7115 5.14235C12.4886 5.04656 12.23 5.14944 12.1341 5.37237C12.0382 5.5953 12.1412 5.8537 12.3642 5.9496L13.7777 6.55762C14.0183 6.65706 14.2525 6.55544 14.355 6.32794L14.9637 4.91622C15.0598 4.6934 14.957 4.43489 14.7341 4.33876Z" fill="#B6B6B6"/>
<path id="Vector_3" d="M10.3207 4.2617C10.4468 4.0073 10.4661 3.71891 10.3754 3.44986C10.2846 3.18082 10.0945 2.96327 9.84014 2.83716C9.31487 2.57692 8.67595 2.79253 8.4156 3.31769C8.35873 3.43258 8.32371 3.55435 8.31066 3.67817C7.97124 3.64693 7.6262 3.67851 7.29181 3.77476C6.62623 3.9661 6.0601 4.39662 5.69779 4.98678L4.51117 6.91943C4.35267 6.89105 4.18879 6.90284 4.03201 6.95571C3.78677 7.03845 3.58845 7.21171 3.47366 7.44345L3.39539 7.60126C3.15827 8.07984 3.35465 8.66222 3.83335 8.89934L6.40205 10.1721C6.14914 10.6983 6.26243 11.2896 6.91885 11.6199C7.49437 11.8563 8.135 11.6247 8.38379 11.1541L8.65535 11.2886C8.79108 11.3559 8.93733 11.3899 9.0845 11.3899C9.18876 11.3899 9.29347 11.3728 9.39509 11.3385C9.64022 11.2559 9.83854 11.0826 9.95344 10.8508L10.0316 10.6929C10.1465 10.4611 10.1642 10.1985 10.0815 9.95321C10.0286 9.79643 9.93868 9.65887 9.82012 9.54993L10.639 7.43521C10.8891 6.78931 10.8886 6.07807 10.6378 5.43264C10.5118 5.10832 10.3279 4.81467 10.0975 4.56347C10.188 4.4781 10.2638 4.37659 10.3207 4.2617ZM9.36739 3.6039C9.46936 3.6039 9.55199 3.68652 9.55199 3.78838C9.55199 3.89034 9.46936 3.97285 9.36739 3.97285C9.26554 3.97285 9.18292 3.89023 9.18292 3.78838C9.18292 3.68652 9.26554 3.6039 9.36739 3.6039ZM7.48315 10.8441C7.42548 10.8637 7.36368 10.8595 7.30909 10.8324C7.2545 10.8054 7.21376 10.7588 7.19431 10.7011C7.17909 10.656 7.17852 10.6083 7.19191 10.5636L7.59405 10.7629C7.56647 10.8005 7.52824 10.829 7.48315 10.8441ZM9.81943 7.11787L8.92738 9.4213C8.80184 9.70591 8.92188 10.0428 9.20329 10.1824H9.2034C9.24929 10.2069 9.26612 10.2573 9.24414 10.3028L9.16587 10.4606C9.13966 10.5064 9.09297 10.5214 9.04559 10.5011L4.22358 8.11189C4.17918 8.08991 4.16087 8.0359 4.18284 7.99161L4.26112 7.8338C4.28229 7.79478 4.32337 7.76708 4.38151 7.79317C4.5217 7.86264 4.68054 7.87328 4.82885 7.82339C4.96881 7.77612 5.08359 7.68011 5.15443 7.55159L6.44668 5.44671C6.69398 5.04389 7.08044 4.75001 7.53477 4.61932C7.98898 4.48863 8.47248 4.53223 8.89591 4.74211C8.89602 4.74211 8.89602 4.74211 8.89613 4.74223C8.89625 4.74223 8.89625 4.74223 8.89636 4.74234C9.3199 4.95222 9.64743 5.31042 9.81863 5.75101C9.98983 6.1916 9.99006 6.67705 9.81943 7.11787Z" fill="#B6B6B6"/>
</g>
<defs>
<clipPath id="clip0_35_176">
<rect width="15" height="15" fill="white"/>
</clipPath>
</defs>
</svg>
