<svg width="14" height="14" viewBox="0 0 14 14" fill="none" xmlns="http://www.w3.org/2000/svg">
<g id="share 1" clip-path="url(#clip0_2_8871)">
<g id="Group">
<g id="Group_2">
<path id="Vector" d="M11.2169 9.90369C10.6828 9.90369 10.2013 10.111 9.83589 10.4449L4.82836 7.52468C4.867 7.36655 4.89161 7.2014 4.89161 7.03273C4.89161 6.86405 4.867 6.6989 4.82836 6.54077L9.78318 3.64869C10.1592 4.00011 10.6617 4.21797 11.2169 4.21797C12.3801 4.21797 13.3253 3.2727 13.3253 2.10953C13.3253 0.946369 12.3801 0.00109863 11.2169 0.00109863C10.0537 0.00109863 9.10848 0.946369 9.10848 2.10953C9.10848 2.27821 9.13309 2.44336 9.17173 2.60149L4.21691 5.49354C3.84092 5.14212 3.33839 4.92426 2.78318 4.92426C1.62001 4.92426 0.674744 5.86953 0.674744 7.03269C0.674744 8.19586 1.62001 9.14113 2.78318 9.14113C3.33839 9.14113 3.84092 8.92327 4.21691 8.57185L9.22444 11.492C9.18929 11.6396 9.16821 11.7942 9.16821 11.9524C9.16821 13.0839 10.0854 14.0011 11.2169 14.0011C12.3484 14.0011 13.2656 13.0839 13.2656 11.9524C13.2656 10.8208 12.3484 9.90369 11.2169 9.90369Z" fill="#44996B"/>
</g>
</g>
</g>
<defs>
<clipPath id="clip0_2_8871">
<rect width="14" height="14" fill="white"/>
</clipPath>
</defs>
</svg>
