<svg width="17" height="17" viewBox="0 0 17 17" fill="none" xmlns="http://www.w3.org/2000/svg">
<g id="star (1) 1" clip-path="url(#clip0_35_187)">
<g id="Group">
<path id="Vector" d="M16.6618 8.06577C15.6669 7.66693 14.7244 6.91978 13.9362 5.90502C13.1323 4.86997 12.4844 3.5511 12.0625 2.0909L11.5797 0.419882C11.5183 0.207451 11.3238 0.0612183 11.1027 0.0612183C10.8816 0.0612183 10.6871 0.207451 10.6257 0.419882L10.1429 2.09086C9.721 3.55107 9.07309 4.87001 8.2692 5.90499C7.48105 6.91974 6.53858 7.66689 5.54361 8.06574C5.35793 8.14018 5.23506 8.31878 5.23192 8.5188C5.22877 8.71885 5.34598 8.90123 5.52925 8.98143L5.68359 9.04898C7.65882 9.9136 9.27301 12.0429 10.1123 14.891L10.6264 16.6359C10.6887 16.8471 10.8825 16.9921 11.1027 16.9921C11.3229 16.9921 11.5167 16.8471 11.579 16.6359L12.0932 14.891C12.9324 12.0429 14.5466 9.9136 16.5219 9.04898L16.6762 8.98143C16.8594 8.9012 16.9766 8.71882 16.9735 8.5188C16.9703 8.31878 16.8475 8.14021 16.6618 8.06577ZM11.1407 14.6103L11.1027 14.7391L11.0648 14.6103C10.2476 11.8372 8.72892 9.66969 6.83223 8.5282C7.6434 8.04002 8.39902 7.35665 9.05339 6.51408C9.93376 5.38063 10.6404 3.94644 11.0968 2.36648L11.1027 2.34622L11.1086 2.36648C11.5651 3.94641 12.2717 5.3806 13.152 6.51408C13.8064 7.35665 14.5621 8.04002 15.3732 8.5282C13.4765 9.66973 11.9578 11.8372 11.1407 14.6103Z" fill="#44996B"/>
<path id="Vector_2" d="M0.647943 4.94824L0.725329 4.98206C1.6489 5.38634 2.40819 6.39719 2.80843 7.75538L3.06631 8.63056C3.12853 8.84177 3.32239 8.98674 3.54257 8.98674C3.76268 8.98674 3.95658 8.84177 4.01884 8.63059L4.27674 7.75542C4.67698 6.39719 5.43624 5.38634 6.35981 4.9821L6.43723 4.94824C6.6205 4.86804 6.73774 4.68566 6.7346 4.48561C6.73148 4.28559 6.60859 4.10699 6.4229 4.03255C5.47265 3.65161 4.66473 2.59154 4.26172 1.19677L4.01956 0.358663C3.95813 0.146232 3.76367 0 3.54254 0C3.3214 0 3.12691 0.146266 3.06554 0.358696L2.82346 1.19677C2.42044 2.59154 1.61252 3.65161 0.662275 4.03255C0.476588 4.10699 0.353723 4.28562 0.350579 4.48561C0.347435 4.68566 0.464672 4.86804 0.647943 4.94824ZM3.54254 2.15949C3.94155 3.16114 4.52913 3.96731 5.2402 4.49554C4.52926 5.02718 3.94022 5.83877 3.54254 6.84049C3.14488 5.83877 2.55585 5.02721 1.84491 4.49554C2.55598 3.96731 3.14353 3.16114 3.54254 2.15949Z" fill="#44996B"/>
<path id="Vector_3" d="M4.45869 13.2619C3.84043 13.0141 3.3116 12.3133 3.04403 11.3873L2.87559 10.8042C2.81422 10.5918 2.61973 10.4455 2.39859 10.4455C2.17749 10.4455 1.983 10.5917 1.92164 10.8042L1.75313 11.3873C1.48559 12.3133 0.956726 13.014 0.338498 13.2619C0.152812 13.3364 0.0299141 13.515 0.0268027 13.715C0.0236583 13.915 0.140896 14.0974 0.324199 14.1776L0.377986 14.2011C0.970727 14.4606 1.48098 15.1462 1.7429 16.035L1.92233 16.6439C1.98459 16.855 2.17842 17 2.39859 17C2.61877 17 2.8126 16.855 2.87486 16.6439L3.05429 16.035C3.31617 15.1462 3.82643 14.4607 4.41914 14.2012L4.47299 14.1776C4.65629 14.0974 4.77353 13.9151 4.77039 13.715C4.76728 13.515 4.64438 13.3364 4.45869 13.2619ZM2.39856 14.9802C2.15267 14.4711 1.83253 14.0435 1.45934 13.7246C1.83266 13.4075 2.15234 12.9823 2.39856 12.4737C2.64479 12.9823 2.96446 13.4075 3.33779 13.7246C2.96453 14.0435 2.64446 14.4711 2.39856 14.9802Z" fill="#44996B"/>
</g>
</g>
<defs>
<clipPath id="clip0_35_187">
<rect width="17" height="17" fill="white"/>
</clipPath>
</defs>
</svg>
