<svg width="15" height="14" viewBox="0 0 15 14" fill="none" xmlns="http://www.w3.org/2000/svg">
<path id="Star 1" d="M7.97553 0.845491C7.90859 0.63948 7.71661 0.5 7.5 0.5C7.28339 0.5 7.09141 0.63948 7.02447 0.845491L5.67739 4.99139H1.31813C1.10152 4.99139 0.909542 5.13087 0.842605 5.33688C0.775667 5.54289 0.848997 5.76858 1.02424 5.8959L4.55095 8.4582L3.20387 12.6041C3.13693 12.8101 3.21026 13.0358 3.3855 13.1631C3.56075 13.2904 3.79804 13.2904 3.97329 13.1631L7.5 10.6008L11.0267 13.1631C11.202 13.2904 11.4393 13.2904 11.6145 13.1631C11.7897 13.0358 11.8631 12.8101 11.7961 12.6041L10.449 8.4582L13.9758 5.8959C14.151 5.76858 14.2243 5.54289 14.1574 5.33688C14.0905 5.13087 13.8985 4.99139 13.6819 4.99139H9.32261L7.97553 0.845491Z" stroke="#B6B6B6" stroke-linejoin="round"/>
</svg>
