<svg xmlns="http://www.w3.org/2000/svg" viewBox="0 0 490.1 490.1">
	<g>
		<path id="XMLID_83_" style="fill:#A7A9AC;" d="M337.2,178.4h-97.5V80.9c-53.8,0-97.5,43.6-97.5,97.5s43.6,97.5,97.5,97.5
			S337.2,232.3,337.2,178.4z"/>
		<path d="M480.9,0.3H9.1C4.1,0.3,0,4.4,0,9.4s4.1,9.1,9.1,9.1h17.5V310c0,14.2,11.5,25.7,25.7,25.7h387.4
			c14.2,0,25.7-11.5,25.7-25.7V18.4H481c5,0,9.1-4.1,9.1-9.1S485.9,0.3,480.9,0.3z M447.2,310c0,4.2-3.4,7.5-7.5,7.5H52.2
			c-4.2,0-7.5-3.4-7.5-7.5V18.4h402.5V310z"/>
		<path d="M170.7,474.3c-3.5,3.5-3.5,9.3,0,12.8c1.8,1.8,4.1,2.7,6.4,2.7s4.6-0.9,6.4-2.7l58.2-58.2v51.8c0,5,4.1,9.1,9.1,9.1
			s9.1-4.1,9.1-9.1v-51.8l57.9,57.9c1.8,1.8,4.1,2.7,6.4,2.7s4.6-0.9,6.4-2.7c3.5-3.5,3.5-9.3,0-12.8l-70.7-70.7v-27.4h35.9
			c5,0,9.1-4.1,9.1-9.1s-4.1-9.1-9.1-9.1h-91.3c-5,0-9.1,4.1-9.1,9.1s4.1,9.1,9.1,9.1h37.3v27.4L170.7,474.3z"/>
		<path d="M239.7,285c58.8,0,106.6-47.8,106.6-106.6c0-5-4.1-9.1-9.1-9.1h-88.4V80.9c0-5-4.1-9.1-9.1-9.1
			c-58.8,0-106.6,47.8-106.6,106.6S180.9,285,239.7,285z M230.6,90.4v88c0,5,4.1,9.1,9.1,9.1h88c-4.6,44.5-42.3,79.4-88,79.4
			c-48.8,0-88.4-39.7-88.4-88.4C151.3,132.7,186.1,95,230.6,90.4z"/>
		<path d="M282.9,145.6h76.5c5,0,9.1-4.1,9.1-9.1c0-20.9-7.6-41-21.4-56.7C330.8,61.5,307.4,51,282.9,51c-5,0-9.1,4.1-9.1,9.1v76.5
			C273.8,141.6,277.8,145.6,282.9,145.6z M291.9,69.7c15.9,2.2,30.7,10,41.5,22.2c8.9,10,14.5,22.4,16.3,35.6h-57.8V69.7z"/>
	</g>
</svg>
