<svg width="20" height="18" viewBox="0 0 20 18" fill="none" xmlns="http://www.w3.org/2000/svg">
  <path d="M19.4181 8.64983C19.2435 8.42986 15.0838 3.26367 9.77105 3.26367C4.45832 3.26367 0.298402 8.42986 0.12401 8.64962C-0.0413366 8.85831 -0.0413366 9.14135 0.12401 9.35004C0.298402 9.57001 4.45832 14.7362 9.77105 14.7362C15.0838 14.7362 19.2435 9.56998 19.4181 9.35022C19.5837 9.14156 19.5837 8.85831 19.4181 8.64983ZM9.77105 13.5494C5.85766 13.5494 2.46825 10.1205 1.46491 8.99953C2.46695 7.87759 5.84926 4.45048 9.77105 4.45048C13.6842 4.45048 17.0734 7.87878 18.0772 9.00034C17.0751 10.1222 13.6928 13.5494 9.77105 13.5494Z" fill="#44996B"/>
  <path d="M9.77116 5.43958C7.63975 5.43958 5.90564 7.03683 5.90564 9.00003C5.90564 10.9632 7.63975 12.5605 9.77116 12.5605C11.9026 12.5605 13.6367 10.9632 13.6367 9.00003C13.6367 7.03683 11.9026 5.43958 9.77116 5.43958ZM9.77116 11.3736C8.35015 11.3736 7.19417 10.3089 7.19417 9.00003C7.19417 7.6912 8.35018 6.62642 9.77116 6.62642C11.1921 6.62642 12.3482 7.6912 12.3482 9.00003C12.3482 10.3089 11.1922 11.3736 9.77116 11.3736Z" fill="#44996B"/>
</svg>
