<svg width="615" height="91" viewBox="0 0 615 91" fill="none" xmlns="http://www.w3.org/2000/svg">
<path d="M64.05 64.0454L73.5 37.0254C74.62 33.8987 75.18 31.5654 75.18 30.0254C75.18 28.5787 74.6667 27.6454 73.64 27.2254C72.66 26.7587 71.12 26.5254 69.02 26.5254V23.7254H88.9V26.5254C87.1267 26.5254 85.5167 26.9687 84.07 27.8554C82.67 28.6954 81.5967 30.1421 80.85 32.1954L63.98 78.3254H57.75L45.57 41.3654L31.71 78.3254H25.9L11.06 37.4454C10.1733 35.0654 9.35667 33.1521 8.61 31.7054C7.86333 30.2587 7.07 29.1621 6.23 28.4154C5.39 27.6687 4.48 27.1787 3.5 26.9454C2.52 26.7121 1.35333 26.5954 0 26.5954V23.7254H26.46V26.5954C24.08 26.5954 22.4467 26.8287 21.56 27.2954C20.6733 27.7154 20.23 28.4387 20.23 29.4654C20.23 29.8387 20.2533 30.2121 20.3 30.5854C20.3467 30.9121 20.44 31.3087 20.58 31.7754C20.72 32.1954 20.8833 32.7321 21.07 33.3854C21.3033 34.0387 21.6067 34.8554 21.98 35.8354L31.78 64.0454L43.12 33.1054C42.6533 31.8454 42.1867 30.8187 41.72 30.0254C41.2533 29.2321 40.6933 28.6021 40.04 28.1354C39.4333 27.6687 38.7333 27.3421 37.94 27.1554C37.1467 26.9221 36.19 26.7354 35.07 26.5954V23.7254H59.78V26.5954C57.82 26.5954 56.3733 26.8521 55.44 27.3654C54.5067 27.8321 54.04 28.7654 54.04 30.1654C54.04 30.8654 54.1333 31.6821 54.32 32.6154C54.5533 33.5487 54.8567 34.6221 55.23 35.8354L64.05 64.0454Z" fill="#EBECE7"/>
<path d="M147.669 37.2354C147.669 41.1087 146.549 44.3521 144.309 46.9654C142.069 49.5787 138.499 51.3287 133.599 52.2154L149.839 70.8354C150.959 72.1421 152.289 73.1454 153.829 73.8454C155.369 74.4987 156.933 74.8254 158.519 74.8254V77.6254H141.929L124.569 56.3454C123.403 54.9454 122.376 54.0121 121.489 53.5454C120.649 53.0321 119.856 52.7754 119.109 52.7754V66.4954C119.109 68.2221 119.226 69.6454 119.459 70.7654C119.693 71.8387 120.159 72.6787 120.859 73.2854C121.559 73.8921 122.563 74.3121 123.869 74.5454C125.223 74.7321 127.019 74.8254 129.259 74.8254V77.6254H101.469V74.8254C103.009 74.8254 104.246 74.7321 105.179 74.5454C106.159 74.3121 106.906 73.9154 107.419 73.3554C107.979 72.7487 108.353 71.9321 108.539 70.9054C108.726 69.8321 108.819 68.4787 108.819 66.8454V34.5054C108.819 32.8721 108.749 31.5654 108.609 30.5854C108.469 29.5587 108.166 28.7654 107.699 28.2054C107.233 27.5987 106.556 27.2021 105.669 27.0154C104.829 26.7821 103.686 26.6187 102.239 26.5254V23.7254H126.459C133.226 23.7254 138.453 24.9154 142.139 27.2954C145.826 29.6754 147.669 32.9887 147.669 37.2354ZM119.109 48.5754H123.659C128.046 48.5754 131.313 47.7354 133.459 46.0554C135.653 44.3287 136.749 41.5054 136.749 37.5854C136.749 34.5987 135.839 32.1954 134.019 30.3754C132.199 28.5554 129.679 27.6454 126.459 27.6454H120.369C119.529 27.6454 119.109 28.0421 119.109 28.8354V48.5754Z" fill="#EBECE7"/>
<path d="M265.559 39.1254H262.549C262.409 36.8387 262.059 34.9487 261.499 33.4554C260.986 31.9154 260.239 30.7021 259.259 29.8154C258.279 28.8821 257.089 28.2521 255.689 27.9254C254.289 27.5521 252.656 27.3654 250.789 27.3654C248.969 27.3654 247.499 27.4121 246.379 27.5054C245.306 27.5521 244.466 27.6687 243.859 27.8554C243.299 27.9954 242.926 28.2054 242.739 28.4854C242.553 28.7654 242.459 29.1154 242.459 29.5354V66.2154C242.459 67.7087 242.553 68.9921 242.739 70.0654C242.973 71.1387 243.416 72.0254 244.069 72.7254C244.723 73.3787 245.679 73.8921 246.939 74.2654C248.199 74.5921 249.856 74.7787 251.909 74.8254V77.6254H222.579V74.8254C224.679 74.7787 226.359 74.5921 227.619 74.2654C228.879 73.8921 229.836 73.3787 230.489 72.7254C231.189 72.0254 231.633 71.1387 231.819 70.0654C232.053 68.9921 232.169 67.7087 232.169 66.2154V29.5354C232.169 29.1154 232.076 28.7654 231.889 28.4854C231.749 28.2054 231.423 27.9954 230.909 27.8554C230.396 27.6687 229.649 27.5521 228.669 27.5054C227.736 27.4121 226.499 27.3654 224.959 27.3654C223.279 27.3654 221.669 27.4587 220.129 27.6454C218.589 27.7854 217.236 28.2521 216.069 29.0454C214.903 29.7921 213.946 30.9587 213.199 32.5454C212.499 34.0854 212.126 36.2787 212.079 39.1254H209.349L210.049 23.7254H264.859L265.559 39.1254Z" fill="#EBECE7"/>
<path d="M310.308 23.0254C314.508 23.0254 318.428 23.7487 322.068 25.1954C325.708 26.6421 328.858 28.6254 331.518 31.1454C334.224 33.6654 336.348 36.6287 337.888 40.0354C339.428 43.4421 340.198 47.1287 340.198 51.0954C340.198 54.8754 339.404 58.4221 337.818 61.7354C336.278 65.0487 334.154 67.9421 331.448 70.4154C328.788 72.8421 325.638 74.7787 321.998 76.2254C318.358 77.6254 314.461 78.3254 310.308 78.3254C306.154 78.3254 302.258 77.6254 298.618 76.2254C294.978 74.7787 291.804 72.8421 289.098 70.4154C286.391 67.9421 284.268 65.0487 282.728 61.7354C281.188 58.4221 280.418 54.8754 280.418 51.0954C280.418 47.1287 281.188 43.4421 282.728 40.0354C284.268 36.6287 286.368 33.6654 289.028 31.1454C291.734 28.6254 294.908 26.6421 298.548 25.1954C302.188 23.7487 306.108 23.0254 310.308 23.0254ZM310.308 73.7754C313.014 73.7754 315.464 73.2621 317.658 72.2354C319.851 71.1621 321.718 69.6687 323.258 67.7554C324.798 65.7954 325.964 63.4387 326.758 60.6854C327.598 57.8854 328.018 54.7587 328.018 51.3054C328.018 47.6654 327.598 44.3987 326.758 41.5054C325.964 38.5654 324.798 36.0687 323.258 34.0154C321.718 31.9154 319.851 30.3287 317.658 29.2554C315.464 28.1354 313.014 27.5754 310.308 27.5754C307.554 27.5754 305.081 28.1354 302.888 29.2554C300.741 30.3287 298.898 31.9154 297.358 34.0154C295.818 36.0687 294.628 38.5654 293.788 41.5054C292.994 44.3987 292.598 47.6654 292.598 51.3054C292.598 54.7587 292.994 57.8854 293.788 60.6854C294.628 63.4387 295.818 65.7954 297.358 67.7554C298.898 69.6687 300.741 71.1621 302.888 72.2354C305.081 73.2621 307.554 73.7754 310.308 73.7754Z" fill="#EBECE7"/>
<path d="M402.333 37.2354C402.333 41.1087 401.213 44.3521 398.973 46.9654C396.733 49.5787 393.163 51.3287 388.263 52.2154L404.503 70.8354C405.623 72.1421 406.953 73.1454 408.493 73.8454C410.033 74.4987 411.596 74.8254 413.183 74.8254V77.6254H396.593L379.233 56.3454C378.066 54.9454 377.039 54.0121 376.153 53.5454C375.313 53.0321 374.519 52.7754 373.773 52.7754V66.4954C373.773 68.2221 373.889 69.6454 374.123 70.7654C374.356 71.8387 374.823 72.6787 375.523 73.2854C376.223 73.8921 377.226 74.3121 378.533 74.5454C379.886 74.7321 381.683 74.8254 383.923 74.8254V77.6254H356.133V74.8254C357.673 74.8254 358.909 74.7321 359.843 74.5454C360.823 74.3121 361.569 73.9154 362.083 73.3554C362.643 72.7487 363.016 71.9321 363.203 70.9054C363.389 69.8321 363.483 68.4787 363.483 66.8454V34.5054C363.483 32.8721 363.413 31.5654 363.273 30.5854C363.133 29.5587 362.829 28.7654 362.363 28.2054C361.896 27.5987 361.219 27.2021 360.333 27.0154C359.493 26.7821 358.349 26.6187 356.903 26.5254V23.7254H381.123C387.889 23.7254 393.116 24.9154 396.803 27.2954C400.489 29.6754 402.333 32.9887 402.333 37.2354ZM373.773 48.5754H378.323C382.709 48.5754 385.976 47.7354 388.123 46.0554C390.316 44.3287 391.413 41.5054 391.413 37.5854C391.413 34.5987 390.503 32.1954 388.683 30.3754C386.863 28.5554 384.343 27.6454 381.123 27.6454H375.033C374.193 27.6454 373.773 28.0421 373.773 28.8354V48.5754Z" fill="#EBECE7"/>
<path d="M449.473 77.6254H424.483V74.8254C426.069 74.7787 427.329 74.6387 428.263 74.4054C429.243 74.1254 429.989 73.6354 430.503 72.9354C431.016 72.2354 431.366 71.2554 431.553 69.9954C431.739 68.6887 431.833 66.9387 431.833 64.7454V36.6054C431.833 34.6454 431.739 33.0354 431.553 31.7754C431.413 30.4687 431.109 29.4421 430.643 28.6954C430.176 27.9487 429.499 27.4354 428.613 27.1554C427.773 26.8287 426.629 26.6187 425.183 26.5254V23.7254H448.773V26.5254C447.326 26.6187 446.159 26.8287 445.273 27.1554C444.433 27.4354 443.779 27.9487 443.313 28.6954C442.846 29.4421 442.519 30.4687 442.333 31.7754C442.193 33.0354 442.123 34.6454 442.123 36.6054V64.7454C442.123 66.9387 442.193 68.6887 442.333 69.9954C442.519 71.2554 442.869 72.2354 443.383 72.9354C443.943 73.6354 444.689 74.1254 445.623 74.4054C446.603 74.6387 447.886 74.7787 449.473 74.8254V77.6254Z" fill="#EBECE7"/>
<path d="M516.162 55.9254C516.162 59.8921 515.719 63.2987 514.833 66.1454C513.992 68.9454 512.662 71.2554 510.842 73.0754C509.022 74.8954 506.666 76.2254 503.772 77.0654C500.926 77.9054 497.496 78.3254 493.482 78.3254C485.969 78.3254 480.462 76.7621 476.962 73.6354C473.509 70.4621 471.783 65.4221 471.783 58.5154V39.3354C471.783 37.5154 471.759 35.9987 471.712 34.7854C471.666 33.5254 471.596 32.4754 471.503 31.6354C471.409 30.7954 471.269 30.1187 471.082 29.6054C470.942 29.0454 470.756 28.5787 470.522 28.2054C470.102 27.5521 469.496 27.1087 468.702 26.8754C467.909 26.6421 466.696 26.5254 465.062 26.5254V23.7254H490.193V26.5254C488.233 26.5254 486.786 26.6421 485.853 26.8754C484.919 27.0621 484.196 27.4587 483.682 28.0654C483.356 28.4387 483.076 28.9054 482.842 29.4654C482.656 29.9787 482.493 30.6787 482.353 31.5654C482.259 32.4054 482.189 33.4554 482.142 34.7154C482.096 35.9754 482.073 37.5154 482.073 39.3354V57.6754C482.073 62.9954 483.193 66.9387 485.432 69.5054C487.719 72.0254 491.219 73.2854 495.932 73.2854C505.546 73.2854 510.353 67.9421 510.353 57.2554V41.0854C510.353 39.1254 510.306 37.4454 510.212 36.0454C510.166 34.6454 510.049 33.4554 509.862 32.4754C509.722 31.4954 509.512 30.6787 509.232 30.0254C508.999 29.3721 508.696 28.8354 508.323 28.4154C507.669 27.7621 506.829 27.2954 505.802 27.0154C504.776 26.6887 503.353 26.5254 501.533 26.5254V23.7254H524.213V26.5254C522.486 26.5254 521.156 26.6654 520.222 26.9454C519.289 27.1787 518.566 27.6221 518.052 28.2754C517.679 28.6954 517.376 29.2554 517.143 29.9554C516.909 30.6087 516.723 31.4487 516.583 32.4754C516.443 33.4554 516.326 34.6454 516.232 36.0454C516.186 37.4454 516.162 39.1254 516.162 41.0854V55.9254Z" fill="#EBECE7"/>
<path d="M576.634 64.5354L592.804 23.7254H613.244V26.5254C611.704 26.5254 610.444 26.6887 609.464 27.0154C608.531 27.2954 607.808 27.8321 607.294 28.6254C606.781 29.4187 606.431 30.5154 606.244 31.9154C606.104 33.2687 606.034 34.9954 606.034 37.0954V64.2554C606.034 66.5887 606.128 68.4321 606.314 69.7854C606.501 71.1387 606.874 72.1887 607.434 72.9354C607.994 73.6821 608.788 74.1721 609.814 74.4054C610.888 74.6387 612.288 74.7787 614.014 74.8254V77.6254H587.694V74.8254C589.421 74.7787 590.798 74.6387 591.824 74.4054C592.898 74.1254 593.714 73.6354 594.274 72.9354C594.881 72.2354 595.278 71.2554 595.464 69.9954C595.651 68.6887 595.744 66.9387 595.744 64.7454V31.9854H595.394L576.564 78.3254H571.384L551.924 31.9854H551.644V64.2554C551.644 66.5887 551.738 68.4321 551.924 69.7854C552.111 71.1387 552.484 72.1887 553.044 72.9354C553.604 73.6821 554.398 74.1721 555.424 74.4054C556.498 74.6387 557.898 74.7787 559.624 74.8254V77.6254H538.064V74.8254C539.791 74.7787 541.191 74.6387 542.264 74.4054C543.338 74.1254 544.154 73.6354 544.714 72.9354C545.321 72.2354 545.718 71.2554 545.904 69.9954C546.091 68.6887 546.184 66.9387 546.184 64.7454V36.6054C546.184 34.6454 546.091 33.0121 545.904 31.7054C545.718 30.3987 545.368 29.3721 544.854 28.6254C544.341 27.8321 543.594 27.2954 542.614 27.0154C541.681 26.6887 540.421 26.5254 538.834 26.5254V23.7254H560.044L576.354 64.5354H576.634Z" fill="#EBECE7"/>
<path d="M197.536 57.1835C197.536 57.1835 192.161 63.4379 186.981 64.2197C186.981 64.2197 195.776 56.988 195.386 48.8768C195.386 48.8768 191.867 56.4994 187.861 58.2584C187.861 58.2584 192.845 51.4177 194.115 46.2382C195.386 41.0587 192.942 32.068 192.942 32.068C192.942 32.068 192.258 36.6611 189.229 38.811C189.229 38.811 191.867 32.752 191.867 29.1362C191.867 25.5204 190.011 8.71157 188.154 5.19349C186.297 1.67535 183.072 -0.181433 180.238 0.014001C177.404 0.209436 171.931 5.77979 170.759 21.1227C170.655 22.4743 170.543 23.7246 170.426 24.893L176.614 36.3861L170.052 28.1831C168.859 37.5447 167.338 40.177 167.338 43.7951C167.338 48.1927 170.954 54.5449 173.886 57.1835C173.886 57.1835 168.413 52.1017 166.654 48.4859C166.654 48.4859 168.218 59.9198 175.45 64.3174C175.45 64.3174 167.045 60.7993 165.384 56.4016C165.384 56.4016 165.579 62.4606 174.57 67.0537C174.57 67.0537 169 66.0765 166.068 63.4379C166.068 63.4379 168.706 68.2264 174.375 69.79C174.375 69.79 170.856 69.2037 169.097 71.1582C169.097 71.1582 178.968 69.9855 180.727 77.1195C180.727 77.1195 179.847 18.3864 181.02 13.7933C181.02 13.7933 182.388 85.6216 182.29 90.5079C182.29 90.5079 183.072 86.2079 184.049 72.9172C184.831 70.9628 193.431 71.3537 193.431 71.3537C193.431 71.3537 190.304 69.3992 187.861 69.5946C187.861 69.5946 193.724 69.2037 196.558 64.0242C196.558 64.0242 191.77 67.1514 187.47 67.2492C187.47 67.2492 196.07 62.4606 197.536 57.1835Z" fill="#EBECE7"/>
</svg>
