<svg width="184" height="27" viewBox="0 0 184 27" fill="none" xmlns="http://www.w3.org/2000/svg">
<path d="M20.083 19.0888L22.8996 11.0355C23.2334 10.1036 23.4003 9.40814 23.4003 8.94914C23.4003 8.51797 23.2473 8.23978 22.9413 8.1146C22.6492 7.97551 22.1903 7.90597 21.5643 7.90597V7.07143H27.4896V7.90597C26.961 7.90597 26.4812 8.0381 26.05 8.30238C25.6327 8.55274 25.3128 8.98392 25.0903 9.59591L20.0622 23.345H18.2053L14.5751 12.329L10.4441 23.345H8.71242L4.28936 11.1607C4.02508 10.4513 3.78168 9.88105 3.55913 9.44987C3.33659 9.01869 3.10013 8.69183 2.84977 8.46928C2.59941 8.24674 2.32818 8.10069 2.0361 8.03115C1.74401 7.9616 1.39628 7.92683 0.99292 7.92683V7.07143H8.87933V7.92683C8.16997 7.92683 7.68315 7.99638 7.41888 8.13547C7.15461 8.26065 7.02248 8.47624 7.02248 8.78224C7.02248 8.89351 7.02943 9.00478 7.04334 9.11605C7.05725 9.21342 7.08507 9.33164 7.12679 9.47073C7.16852 9.59591 7.2172 9.75587 7.27284 9.95059C7.34238 10.1453 7.43279 10.3887 7.54406 10.6808L10.465 19.0888L13.8448 9.86714C13.7058 9.4916 13.5667 9.1856 13.4276 8.94914C13.2885 8.71269 13.1216 8.52492 12.9269 8.38583C12.746 8.24674 12.5374 8.14938 12.3009 8.09374C12.0645 8.0242 11.7794 7.96856 11.4455 7.92683V7.07143H18.8104V7.92683C18.2262 7.92683 17.795 8.00333 17.5168 8.15633C17.2386 8.29542 17.0996 8.5736 17.0996 8.99087C17.0996 9.19951 17.1274 9.44291 17.183 9.72109C17.2526 9.99927 17.343 10.3192 17.4542 10.6808L20.083 19.0888Z" fill="#2E453B"/>
<path d="M45.0058 11.0981C45.0058 12.2525 44.672 13.2192 44.0044 13.9981C43.3367 14.777 42.2727 15.2986 40.8122 15.5629L45.6526 21.1126C45.9864 21.502 46.3828 21.8011 46.8418 22.0097C47.3008 22.2044 47.7667 22.3018 48.2397 22.3018V23.1363H43.295L38.1208 16.7938C37.7731 16.3766 37.4671 16.0984 37.2029 15.9593C36.9525 15.8063 36.716 15.7298 36.4935 15.7298V19.819C36.4935 20.3337 36.5283 20.7579 36.5978 21.0917C36.6674 21.4116 36.8064 21.662 37.0151 21.8428C37.2237 22.0236 37.5228 22.1488 37.9122 22.2183C38.3156 22.274 38.8511 22.3018 39.5187 22.3018V23.1363H31.2359V22.3018C31.6949 22.3018 32.0635 22.274 32.3417 22.2183C32.6337 22.1488 32.8563 22.0306 33.0093 21.8637C33.1762 21.6828 33.2875 21.4394 33.3431 21.1334C33.3987 20.8135 33.4266 20.4102 33.4266 19.9234V10.2844C33.4266 9.79759 33.4057 9.40814 33.364 9.11605C33.3222 8.81005 33.2318 8.5736 33.0927 8.40669C32.9536 8.22588 32.752 8.10765 32.4877 8.05201C32.2373 7.98247 31.8966 7.93379 31.4654 7.90597V7.07143H38.6842C40.701 7.07143 42.2588 7.42611 43.3576 8.13547C44.4564 8.84483 45.0058 9.83237 45.0058 11.0981ZM36.4935 14.478H37.8496C39.1571 14.478 40.1307 14.2276 40.7705 13.7269C41.4242 13.2123 41.7511 12.3708 41.7511 11.2024C41.7511 10.3122 41.4799 9.59591 40.9374 9.05346C40.395 8.51101 39.6439 8.23978 38.6842 8.23978H36.869C36.6187 8.23978 36.4935 8.35801 36.4935 8.59446V14.478Z" fill="#2E453B"/>
<path d="M80.1429 11.6614H79.2458C79.204 10.9799 79.0997 10.4165 78.9328 9.97146C78.7798 9.51246 78.5573 9.15082 78.2652 8.88655C77.9731 8.60837 77.6184 8.4206 77.2011 8.32324C76.7839 8.21197 76.2971 8.15633 75.7407 8.15633C75.1982 8.15633 74.7601 8.17024 74.4263 8.19806C74.1064 8.21197 73.856 8.24674 73.6752 8.30238C73.5083 8.3441 73.397 8.40669 73.3414 8.49015C73.2858 8.5736 73.2579 8.67792 73.2579 8.8031V19.7356C73.2579 20.1807 73.2858 20.5632 73.3414 20.8831C73.4109 21.203 73.5431 21.4673 73.7378 21.6759C73.9325 21.8706 74.2177 22.0236 74.5932 22.1349C74.9687 22.2322 75.4625 22.2879 76.0745 22.3018V23.1363H67.3327V22.3018C67.9586 22.2879 68.4593 22.2322 68.8349 22.1349C69.2104 22.0236 69.4956 21.8706 69.6903 21.6759C69.8989 21.4673 70.0311 21.203 70.0867 20.8831C70.1562 20.5632 70.191 20.1807 70.191 19.7356V8.8031C70.191 8.67792 70.1632 8.5736 70.1075 8.49015C70.0658 8.40669 69.9685 8.3441 69.8155 8.30238C69.6625 8.24674 69.4399 8.21197 69.1478 8.19806C68.8696 8.17024 68.5011 8.15633 68.0421 8.15633C67.5413 8.15633 67.0615 8.18415 66.6025 8.23978C66.1435 8.28151 65.7401 8.4206 65.3924 8.65706C65.0447 8.8796 64.7595 9.22732 64.537 9.70023C64.3284 10.1592 64.2171 10.813 64.2032 11.6614H63.3895L63.5981 7.07143H79.9343L80.1429 11.6614Z" fill="#2E453B"/>
<path d="M93.4802 6.86279C94.732 6.86279 95.9004 7.07838 96.9853 7.50956C98.0702 7.94074 99.009 8.53187 99.8019 9.28296C100.609 10.034 101.241 10.9173 101.7 11.9326C102.159 12.948 102.389 14.0468 102.389 15.2291C102.389 16.3557 102.152 17.4128 101.68 18.4003C101.221 19.3879 100.588 20.2502 99.781 20.9874C98.9882 21.7107 98.0493 22.2879 96.9644 22.7191C95.8795 23.1363 94.7181 23.345 93.4802 23.345C92.2423 23.345 91.0809 23.1363 89.996 22.7191C88.9111 22.2879 87.9653 21.7107 87.1586 20.9874C86.3519 20.2502 85.719 19.3879 85.26 18.4003C84.801 17.4128 84.5715 16.3557 84.5715 15.2291C84.5715 14.0468 84.801 12.948 85.26 11.9326C85.719 10.9173 86.3449 10.034 87.1377 9.28296C87.9444 8.53187 88.8902 7.94074 89.9751 7.50956C91.06 7.07838 92.2284 6.86279 93.4802 6.86279ZM93.4802 21.9888C94.2869 21.9888 95.0172 21.8358 95.6709 21.5298C96.3246 21.2099 96.881 20.7648 97.34 20.1946C97.799 19.6104 98.1467 18.908 98.3831 18.0874C98.6335 17.2528 98.7587 16.3209 98.7587 15.2917C98.7587 14.2067 98.6335 13.2331 98.3831 12.3708C98.1467 11.4945 97.799 10.7504 97.34 10.1384C96.881 9.51246 96.3246 9.03955 95.6709 8.71965C95.0172 8.38583 94.2869 8.21892 93.4802 8.21892C92.6596 8.21892 91.9224 8.38583 91.2687 8.71965C90.6289 9.03955 90.0795 9.51246 89.6205 10.1384C89.1615 10.7504 88.8068 11.4945 88.5564 12.3708C88.32 13.2331 88.2018 14.2067 88.2018 15.2917C88.2018 16.3209 88.32 17.2528 88.5564 18.0874C88.8068 18.908 89.1615 19.6104 89.6205 20.1946C90.0795 20.7648 90.6289 21.2099 91.2687 21.5298C91.9224 21.8358 92.6596 21.9888 93.4802 21.9888Z" fill="#2E453B"/>
<path d="M120.908 11.0981C120.908 12.2525 120.574 13.2192 119.907 13.9981C119.239 14.777 118.175 15.2986 116.715 15.5629L121.555 21.1126C121.889 21.502 122.285 21.8011 122.744 22.0097C123.203 22.2044 123.669 22.3018 124.142 22.3018V23.1363H119.197L114.023 16.7938C113.676 16.3766 113.37 16.0984 113.105 15.9593C112.855 15.8063 112.618 15.7298 112.396 15.7298V19.819C112.396 20.3337 112.431 20.7579 112.5 21.0917C112.57 21.4116 112.709 21.662 112.918 21.8428C113.126 22.0236 113.425 22.1488 113.815 22.2183C114.218 22.274 114.754 22.3018 115.421 22.3018V23.1363H107.138V22.3018C107.597 22.3018 107.966 22.274 108.244 22.2183C108.536 22.1488 108.759 22.0306 108.912 21.8637C109.079 21.6828 109.19 21.4394 109.246 21.1334C109.301 20.8135 109.329 20.4102 109.329 19.9234V10.2844C109.329 9.79759 109.308 9.40814 109.266 9.11605C109.225 8.81005 109.134 8.5736 108.995 8.40669C108.856 8.22588 108.654 8.10765 108.39 8.05201C108.14 7.98247 107.799 7.93379 107.368 7.90597V7.07143H114.587C116.603 7.07143 118.161 7.42611 119.26 8.13547C120.359 8.84483 120.908 9.83237 120.908 11.0981ZM112.396 14.478H113.752C115.06 14.478 116.033 14.2276 116.673 13.7269C117.327 13.2123 117.654 12.3708 117.654 11.2024C117.654 10.3122 117.382 9.59591 116.84 9.05346C116.297 8.51101 115.546 8.23978 114.587 8.23978H112.771C112.521 8.23978 112.396 8.35801 112.396 8.59446V14.478Z" fill="#2E453B"/>
<path d="M134.958 23.1363H127.51V22.3018C127.983 22.2879 128.359 22.2462 128.637 22.1766C128.929 22.0932 129.151 21.9471 129.304 21.7385C129.457 21.5298 129.562 21.2378 129.617 20.8622C129.673 20.4728 129.701 19.9512 129.701 19.2974V10.9103C129.701 10.3261 129.673 9.84628 129.617 9.47073C129.576 9.08128 129.485 8.77528 129.346 8.55274C129.207 8.33019 129.005 8.17719 128.741 8.09374C128.491 7.99638 128.15 7.93379 127.719 7.90597V7.07143H134.75V7.90597C134.319 7.93379 133.971 7.99638 133.707 8.09374C133.456 8.17719 133.261 8.33019 133.122 8.55274C132.983 8.77528 132.886 9.08128 132.83 9.47073C132.789 9.84628 132.768 10.3261 132.768 10.9103V19.2974C132.768 19.9512 132.789 20.4728 132.83 20.8622C132.886 21.2378 132.99 21.5298 133.143 21.7385C133.31 21.9471 133.533 22.0932 133.811 22.1766C134.103 22.2462 134.485 22.2879 134.958 22.3018V23.1363Z" fill="#2E453B"/>
<path d="M154.835 16.6686C154.835 17.8509 154.703 18.8663 154.439 19.7147C154.188 20.5493 153.792 21.2378 153.25 21.7802C152.707 22.3227 152.005 22.7191 151.142 22.9694C150.294 23.2198 149.272 23.345 148.075 23.345C145.836 23.345 144.195 22.879 143.152 21.9471C142.122 21.0013 141.608 19.4991 141.608 17.4406V11.724C141.608 11.1815 141.601 10.7295 141.587 10.3679C141.573 9.99232 141.552 9.67937 141.524 9.42901C141.497 9.17864 141.455 8.97696 141.399 8.82396C141.357 8.65706 141.302 8.51797 141.232 8.40669C141.107 8.21197 140.926 8.07983 140.69 8.01029C140.453 7.94074 140.092 7.90597 139.605 7.90597V7.07143H147.095V7.90597C146.511 7.90597 146.08 7.94074 145.801 8.01029C145.523 8.06592 145.308 8.18415 145.155 8.36497C145.057 8.47624 144.974 8.61533 144.904 8.78224C144.849 8.93524 144.8 9.14387 144.758 9.40814C144.73 9.6585 144.71 9.97146 144.696 10.347C144.682 10.7225 144.675 11.1815 144.675 11.724V17.1902C144.675 18.7759 145.009 19.9512 145.676 20.7162C146.358 21.4673 147.401 21.8428 148.806 21.8428C151.671 21.8428 153.104 20.2502 153.104 17.0651V12.2456C153.104 11.6614 153.09 11.1607 153.062 10.7434C153.048 10.3261 153.013 9.97146 152.958 9.67937C152.916 9.38728 152.853 9.14387 152.77 8.94914C152.7 8.75442 152.61 8.59446 152.499 8.46928C152.304 8.27456 152.053 8.13547 151.747 8.05201C151.441 7.95465 151.017 7.90597 150.475 7.90597V7.07143H157.235V7.90597C156.72 7.90597 156.324 7.9477 156.045 8.03115C155.767 8.10069 155.552 8.23283 155.399 8.42756C155.287 8.55274 155.197 8.71965 155.127 8.92828C155.058 9.12301 155.002 9.37337 154.96 9.67937C154.919 9.97146 154.884 10.3261 154.856 10.7434C154.842 11.1607 154.835 11.6614 154.835 12.2456V16.6686Z" fill="#2E453B"/>
<path d="M172.859 19.2349L177.678 7.07143H183.77V7.90597C183.311 7.90597 182.936 7.95465 182.644 8.05201C182.366 8.13547 182.15 8.29542 181.997 8.53187C181.844 8.76833 181.74 9.09519 181.684 9.51246C181.642 9.91582 181.622 10.4305 181.622 11.0564V19.1514C181.622 19.8469 181.649 20.3963 181.705 20.7996C181.761 21.203 181.872 21.5159 182.039 21.7385C182.206 21.961 182.442 22.1071 182.748 22.1766C183.068 22.2462 183.485 22.2879 184 22.3018V23.1363H176.155V22.3018C176.67 22.2879 177.08 22.2462 177.386 22.1766C177.706 22.0932 177.95 21.9471 178.116 21.7385C178.297 21.5298 178.416 21.2378 178.471 20.8622C178.527 20.4728 178.555 19.9512 178.555 19.2974V9.53332H178.45L172.838 23.345H171.294L165.494 9.53332H165.411V19.1514C165.411 19.8469 165.438 20.3963 165.494 20.7996C165.55 21.203 165.661 21.5159 165.828 21.7385C165.995 21.961 166.231 22.1071 166.537 22.1766C166.857 22.2462 167.274 22.2879 167.789 22.3018V23.1363H161.363V22.3018C161.878 22.2879 162.295 22.2462 162.615 22.1766C162.935 22.0932 163.178 21.9471 163.345 21.7385C163.526 21.5298 163.644 21.2378 163.7 20.8622C163.755 20.4728 163.783 19.9512 163.783 19.2974V10.9103C163.783 10.3261 163.755 9.83932 163.7 9.44987C163.644 9.06042 163.54 8.75442 163.387 8.53187C163.234 8.29542 163.011 8.13547 162.719 8.05201C162.441 7.95465 162.065 7.90597 161.593 7.90597V7.07143H167.914L172.775 19.2349H172.859Z" fill="#2E453B"/>
<path d="M59.8684 17.0435C59.8684 17.0435 58.2664 18.9077 56.7227 19.1407C56.7227 19.1407 59.3441 16.9853 59.2276 14.5677C59.2276 14.5677 58.179 16.8397 56.9848 17.3639C56.9848 17.3639 58.4703 15.325 58.849 13.7813C59.2276 12.2376 58.4994 9.55787 58.4994 9.55787C58.4994 9.55787 58.2956 10.9269 57.3926 11.5676C57.3926 11.5676 58.179 9.76175 58.179 8.68406C58.179 7.60636 57.6256 2.59648 57.0722 1.54792C56.5188 0.499339 55.5576 -0.0540763 54.7129 0.00417301C53.8682 0.0624223 52.2371 1.72267 51.8876 6.29563C51.8568 6.69846 51.8234 7.07112 51.7883 7.41937L53.6328 10.8449L51.6769 8.39998C51.3215 11.1902 50.8681 11.9747 50.8681 13.0531C50.8681 14.3638 51.9458 16.2571 52.8196 17.0435C52.8196 17.0435 51.1885 15.5289 50.6642 14.4512C50.6642 14.4512 51.1303 17.8591 53.2857 19.1698C53.2857 19.1698 50.7807 18.1212 50.2856 16.8105C50.2856 16.8105 50.3439 18.6164 53.0235 19.9854C53.0235 19.9854 51.3633 19.6941 50.4895 18.9077C50.4895 18.9077 51.2759 20.3349 52.9653 20.8009C52.9653 20.8009 51.9167 20.6262 51.3924 21.2087C51.3924 21.2087 54.3343 20.8592 54.8585 22.9855C54.8585 22.9855 54.5964 5.48008 54.9459 4.1111C54.9459 4.1111 55.3537 25.5195 55.3246 26.9759C55.3246 26.9759 55.5576 25.6943 55.8489 21.733C56.0819 21.1505 58.6451 21.267 58.6451 21.267C58.6451 21.267 57.713 20.6844 56.9848 20.7427C56.9848 20.7427 58.7324 20.6262 59.5771 19.0824C59.5771 19.0824 58.1499 20.0145 56.8683 20.0436C56.8683 20.0436 59.4315 18.6164 59.8684 17.0435Z" fill="#2E453B"/>
</svg>
