<svg viewBox="0 0 100 100" fill="none" xmlns="http://www.w3.org/2000/svg">
<g clip-path="url(#clip0_1931_13585)">
<path d="M75.3414 75.3245C89.6017 61.0642 89.6017 37.9436 75.3414 23.6833C61.081 9.42299 37.9605 9.42299 23.7002 23.6833C9.43985 37.9436 9.43985 61.0642 23.7002 75.3245C37.9605 89.5848 61.081 89.5848 75.3414 75.3245Z" fill="#FFC700"/>
<path d="M70.6231 47.6062C70.6231 36.3081 61.5911 27.1467 50.455 27.1467C39.3189 27.1467 30.2869 36.3081 30.2869 47.6062C30.2869 56.4115 35.7579 63.9219 43.4625 66.803V68.2922C43.0093 68.3246 42.6532 68.6807 42.6532 69.1662C42.6532 69.49 42.8151 69.7813 43.0741 69.9108C42.8151 70.0727 42.6532 70.3317 42.6532 70.6554C42.6532 70.9791 42.8151 71.2705 43.0741 71.3999C42.8151 71.5618 42.6532 71.8208 42.6532 72.1445C42.6532 72.4359 42.7827 72.6948 43.0093 72.8567C42.7827 73.0186 42.6532 73.2775 42.6532 73.5689C42.6532 74.0545 43.0417 74.443 43.5273 74.443H45.6315V74.9933C45.6315 76.8385 47.1206 78.3277 48.9659 78.3277H52.1707C54.016 78.3277 55.5051 76.8385 55.5051 74.9933V74.443H57.6093C58.0949 74.443 58.4834 74.0545 58.4834 73.5689C58.4834 73.2775 58.3539 73.0186 58.1273 72.8567C58.3539 72.6948 58.4834 72.4359 58.4834 72.1445C58.4834 71.8208 58.3215 71.5294 58.0625 71.3999C58.3215 71.2381 58.4834 70.9791 58.4834 70.6554C58.4834 70.3317 58.3215 70.0403 58.0625 69.9108C58.3215 69.7489 58.4834 69.49 58.4834 69.1662C58.4834 68.6807 58.0949 68.2922 57.6093 68.2922H57.4475V66.803C65.1197 63.9219 70.6231 56.4115 70.6231 47.6062Z" fill="white"/>
<path d="M41.4554 31.1608C38.4448 32.7795 35.7255 35.2398 34.9486 38.7036C34.8191 39.254 35.6608 39.4806 35.7579 38.9302C36.5024 35.693 39.0599 33.4269 41.8763 31.9054C42.3619 31.6464 41.941 30.9019 41.4554 31.1608Z" fill="white"/>
<path d="M55.0195 53.4007C54.5016 52.203 52.8829 51.3937 51.7499 52.3001C51.7175 52.3001 51.7175 52.3325 51.6852 52.3325C51.2643 51.7821 50.6169 51.3937 49.9047 51.8145C49.4838 52.0411 49.2248 52.4296 48.9982 52.8828C48.9659 52.8828 48.9659 52.8504 48.9335 52.8504C48.0271 52.3972 47.2501 52.8504 46.9588 53.7568C46.6674 54.728 46.8293 55.7963 47.1854 56.7351C47.5415 57.7063 48.0918 58.5803 48.5774 59.4868C49.063 60.458 49.3543 61.4615 49.4191 62.5622C49.4838 63.7276 49.322 64.9254 49.2248 66.0908C49.1601 67.0296 49.1601 67.936 49.3543 68.8424C49.5809 69.7812 50.4874 70.3316 51.3614 69.7489C51.9118 69.3928 52.0736 68.8748 52.0736 68.3245C52.106 68.2921 52.106 68.2274 52.106 68.1626C52.3002 66.285 51.9765 64.3427 52.3002 62.465C52.5916 60.7817 53.5304 59.3897 54.275 57.9005C55.0195 56.5733 55.6346 54.8899 55.0195 53.4007ZM54.3073 55.6021C54.016 56.9294 53.2714 58.0624 52.6563 59.2602C52.0089 60.4903 51.5557 61.6881 51.4262 63.0801C51.3614 63.7599 51.3614 64.4398 51.3614 65.1196C51.1996 64.9901 50.973 64.9577 50.714 64.9901C50.5521 65.0225 50.3903 65.0225 50.2284 65.0548C50.2931 64.2455 50.3579 63.4362 50.3255 62.6269C50.2931 61.85 50.196 61.0407 49.937 60.2961C49.6781 59.5839 49.322 58.9364 48.9659 58.2566C48.5774 57.5444 48.1889 56.8322 47.9299 56.0553C47.7357 55.3755 47.5415 54.3719 47.9299 53.6921C48.1565 53.336 48.4803 53.4331 48.7393 53.6597C48.7069 53.8216 48.6745 53.9835 48.6421 54.1129C48.4803 55.1165 48.6421 56.12 49.0306 57.0588C49.1601 57.3826 49.6133 57.2854 49.7752 57.0588C50.5521 56.0229 50.5197 54.3719 49.6781 53.3684C49.7752 53.1418 49.9047 52.9152 50.0665 52.7209C50.5197 52.1706 50.9082 52.5267 51.1348 52.9799C50.9406 53.4007 50.8435 53.8863 50.8111 54.3395C50.7463 54.987 50.973 55.9258 51.7823 55.8611C51.9765 55.8611 52.1384 55.7316 52.2031 55.5373C52.4297 54.6956 52.3973 53.8216 52.0736 53.0123C52.2679 52.7857 52.5592 52.6238 52.9153 52.6562C54.3721 52.8828 54.5663 54.5338 54.3073 55.6021Z" fill="#FFC700"/>
<path d="M57.6093 70.0079H43.2683C42.8151 70.0079 42.4266 69.6194 42.4266 69.1662V68.7777C42.4266 68.3245 42.8151 67.936 43.2683 67.936H57.6093C58.0626 67.936 58.451 68.3245 58.451 68.7777V69.1662C58.451 69.6518 58.0949 70.0079 57.6093 70.0079Z" fill="#433930"/>
<path d="M57.6093 73.148H43.2683C42.8151 73.148 42.4266 72.7595 42.4266 72.3063V72.0797C42.4266 71.6265 42.8151 71.238 43.2683 71.238H57.6093C58.0626 71.238 58.451 71.6265 58.451 72.0797V72.3063C58.451 72.7919 58.0949 73.148 57.6093 73.148Z" fill="#433930"/>
<path d="M31.5495 29.3157C30.9992 29.2833 30.4812 28.9919 30.0927 28.5711C29.6395 28.1179 29.3482 27.5028 29.1216 26.8877C28.9921 26.5316 28.8626 26.1432 28.7655 25.7547C28.7007 25.5928 28.5065 25.5928 28.4741 25.7547C28.3122 26.305 28.0856 26.823 27.8267 27.3086C27.6324 27.7294 27.3734 28.1503 27.0497 28.4416L27.0173 28.474C26.6289 28.733 26.208 28.8625 25.7548 28.8301C25.593 28.8301 25.5282 29.1214 25.7224 29.1538C26.9202 29.3804 27.9561 30.4163 28.3122 31.6789C28.4094 32.035 28.4741 32.4234 28.4741 32.7795C28.4741 32.9738 28.7331 33.0061 28.7978 32.8119C29.1863 31.6465 29.6395 30.384 30.7402 29.8013C30.9992 29.6718 31.2905 29.5747 31.6142 29.5747C31.7437 29.6718 31.7437 29.3157 31.5495 29.3157Z" fill="white"/>
<path d="M41.0023 23.5857C40.6462 23.5534 40.3225 23.3915 40.0958 23.1002C39.8045 22.8088 39.6426 22.4203 39.4808 22.0319C39.3837 21.8053 39.3189 21.5463 39.2542 21.3197C39.2218 21.2225 39.0923 21.2225 39.0599 21.3197C38.9628 21.6758 38.8009 21.9995 38.6715 22.3232C38.542 22.5822 38.3801 22.8412 38.1859 23.0354C38.1859 23.0354 38.1535 23.0354 38.1535 23.0678C37.9269 23.2296 37.6355 23.2944 37.3442 23.2944C37.2471 23.2944 37.2147 23.4886 37.3118 23.521C38.0888 23.6829 38.7362 24.3303 38.9628 25.1072C39.0276 25.3339 39.0599 25.5605 39.0599 25.8194C39.0599 25.9489 39.2218 25.9489 39.2542 25.8518C39.5131 25.1396 39.8045 24.2979 40.4843 23.9418C40.6462 23.8447 40.8404 23.8123 41.0347 23.8123C41.1318 23.8123 41.1318 23.5857 41.0023 23.5857Z" fill="white"/>
<path d="M45.6963 42.8799V38.0564C45.6963 37.5708 45.3078 37.1824 44.8546 37.1824H40.2253C40.2253 39.7398 38.2182 41.8116 35.7579 41.8116C35.6284 41.8116 35.4989 41.8116 35.3694 41.7793C35.3047 42.7504 35.2076 43.6892 35.1428 44.6604C34.8838 47.6387 34.722 50.617 34.6572 53.5952C34.5925 56.3145 33.1357 58.6777 32.9091 61.3646C33.3947 61.5589 35.2076 61.9797 35.7579 61.9797C38.2182 61.9797 40.2253 59.9079 40.2253 57.3504H44.8546C45.3078 57.3504 45.6963 56.962 45.6963 56.4764V51.6529C47.4767 51.0378 48.7393 49.2897 48.7393 47.2502C48.7393 45.2431 47.4767 43.495 45.6963 42.8799Z" fill="#433930"/>
<path d="M46.9912 47.2502C46.9912 45.1784 45.6639 43.4303 43.7863 42.7828V37.8946C43.7863 37.409 43.3978 37.0205 42.9123 37.0205H38.0564C38.0564 39.6103 35.9522 41.7145 33.3624 41.7145C30.7726 41.7145 28.6683 39.6103 28.6683 37.0205H23.8125C23.3269 37.0205 22.9384 37.409 22.9384 37.8946V42.6533C25.0103 43.1389 26.5318 45.0165 26.5318 47.2178C26.5318 49.4192 25.0103 51.2968 22.9384 51.7824V56.5411C22.9384 57.0267 23.3269 57.4152 23.8125 57.4152H28.6683C28.6683 60.005 30.7726 62.1092 33.3624 62.1092C35.9522 62.1092 38.0564 60.005 38.0564 57.4152H42.9123C43.3978 57.4152 43.7863 57.0267 43.7863 56.5411V51.6529C45.6639 51.0702 46.9912 49.3221 46.9912 47.2502Z" fill="#FFF0B9"/>
</g>
<defs>
<clipPath id="clip0_1931_13585">
<rect width="73" height="73" fill="white" transform="translate(13 13)"/>
</clipPath>
</defs>
</svg>
