<svg viewBox="0 0 100 100" fill="none" xmlns="http://www.w3.org/2000/svg">
<g clip-path="url(#clip0_1931_12452)">
<path d="M75.3582 76.4171C89.6248 62.1416 89.6248 38.9965 75.3582 24.7211C61.0915 10.4456 37.9607 10.4456 23.694 24.7211C9.42737 38.9966 9.42737 62.1416 23.694 76.4171C37.9607 90.6925 61.0915 90.6925 75.3582 76.4171Z" fill="#CC9325"/>
<path d="M75.3582 76.4171C89.6248 62.1416 89.6248 38.9965 75.3582 24.7211C61.0915 10.4456 37.9607 10.4456 23.694 24.7211C9.42737 38.9966 9.42737 62.1416 23.694 76.4171C37.9607 90.6925 61.0915 90.6925 75.3582 76.4171Z" fill="#78DC81"/>
<path d="M31.2992 36.3684C30.9365 36.3354 30.5738 36.1704 30.31 35.9065C30.0133 35.6096 29.8154 35.2467 29.6506 34.8838C29.5517 34.6528 29.4857 34.4219 29.4198 34.1909C29.3868 34.092 29.2549 34.092 29.222 34.1909C29.0901 34.5208 28.9582 34.8508 28.7933 35.1477C28.6614 35.4116 28.4966 35.6756 28.2658 35.8405C28.2658 35.8405 28.2328 35.8405 28.2328 35.8735C27.969 36.0385 27.7053 36.1045 27.4085 36.1045C27.2766 36.1045 27.2766 36.3024 27.3755 36.3024C28.1998 36.4344 28.8593 37.0942 29.123 37.853C29.189 38.084 29.222 38.3149 29.222 38.5459C29.222 38.6778 29.3868 38.6778 29.4198 38.5788C29.6836 37.853 29.9803 37.0612 30.7057 36.7313C30.8705 36.6323 31.0684 36.5993 31.2662 36.5993C31.464 36.5993 31.431 36.3684 31.2992 36.3684Z" fill="white"/>
<path d="M19.891 50.9838C19.891 50.9838 31.2002 35.0818 47.2243 34.4879C63.2485 33.927 76.2063 50.9838 76.2063 50.9838C76.2063 50.9838 61.534 66.49 48.0486 66.49C34.5633 66.49 19.891 50.9838 19.891 50.9838Z" fill="white"/>
<path d="M47.1255 62.9929C54.0269 62.9929 59.6216 57.3947 59.6216 50.489C59.6216 43.5833 54.0269 37.9851 47.1255 37.9851C40.224 37.9851 34.6293 43.5833 34.6293 50.489C34.6293 57.3947 40.224 62.9929 47.1255 62.9929Z" fill="#4FA457"/>
<path d="M40.3663 56.0974C41.9141 56.0974 43.1688 54.8418 43.1688 53.2931C43.1688 51.7443 41.9141 50.4888 40.3663 50.4888C38.8184 50.4888 37.5637 51.7443 37.5637 53.2931C37.5637 54.8418 38.8184 56.0974 40.3663 56.0974Z" fill="white"/>
<path d="M26.0566 40.5913C25.2653 40.5583 24.54 40.1624 23.9794 39.6015C23.353 39.0077 22.9244 38.2159 22.5946 37.3911C22.3968 36.8962 22.232 36.4013 22.0671 35.9064C22.0012 35.6755 21.7044 35.7085 21.6385 35.9064C21.4077 36.5993 21.078 37.2921 20.7482 37.9519C20.4515 38.5128 20.1218 39.0407 19.6272 39.4366C19.5942 39.4695 19.5942 39.4695 19.5613 39.4695C19.0337 39.7995 18.4073 39.9644 17.7808 39.9314C17.517 39.9314 17.4511 40.3273 17.7149 40.3603C19.4294 40.6573 20.8801 42.0099 21.4077 43.6925C21.5725 44.1544 21.6385 44.6493 21.6055 45.1441C21.6055 45.4081 21.9682 45.4411 22.0341 45.2101C22.5946 43.6925 23.2211 42.0099 24.7708 41.2511C25.1664 41.0532 25.5621 40.9542 25.9907 40.9872C26.3534 41.0532 26.3534 40.6243 26.0566 40.5913Z" fill="white"/>
<g opacity="0.7">
<path d="M78.1053 64.9286C85.8071 60.1042 88.1422 49.9459 83.3208 42.2394C78.4995 34.5328 68.3474 32.1963 60.6456 37.0206C52.9438 41.845 50.6087 52.0033 55.4301 59.7098C60.2514 67.4164 70.4035 69.7529 78.1053 64.9286Z" fill="white"/>
</g>
<path d="M92.7583 79.3897L92.2308 79.8186C90.5822 81.1713 88.1423 80.9403 86.7905 79.2908L78.4487 69.1953C77.0968 67.5457 77.3276 65.1043 78.9762 63.7516L79.5038 63.3227C81.1523 61.9701 83.5922 62.201 84.9441 63.8506L93.2858 73.9461C94.6377 75.5957 94.4069 78.0371 92.7583 79.3897Z" fill="#4FA457"/>
<path d="M69.3154 70.053C67.8647 70.053 66.4139 69.888 64.9632 69.5581C59.9515 68.4034 55.6982 65.3682 52.9945 61.0132C50.2579 56.6583 49.4006 51.5116 50.5546 46.4968C51.7086 41.4821 54.742 37.2261 59.0942 34.5208C63.4465 31.7825 68.59 30.9247 73.6017 32.0794C78.6134 33.2341 82.8667 36.2694 85.5704 40.6243C88.307 44.9792 89.1642 50.1259 88.0102 55.1407C86.8562 60.1554 83.8229 64.4114 79.4706 67.1167C76.3713 69.0632 72.8763 70.053 69.3154 70.053ZM69.2495 34.9167C66.315 34.9167 63.4135 35.7415 60.8417 37.3581C57.2478 39.6015 54.742 43.1317 53.7858 47.2556C52.8296 51.3796 53.555 55.6686 55.7971 59.2647C58.0391 62.8608 61.5671 65.3682 65.6885 66.3249C69.81 67.2817 74.0963 66.5559 77.6902 64.3124C81.2841 62.069 83.7899 58.5388 84.7461 54.4149C85.7022 50.2909 84.9769 46.002 82.7348 42.4058C80.4927 38.8097 76.9648 36.3024 72.8433 35.3456C71.6234 35.0487 70.4364 34.9167 69.2495 34.9167Z" fill="#4FA457"/>
</g>
<defs>
<clipPath id="clip0_1931_12452">
<rect width="81.1429" height="73.1429" fill="white" transform="translate(13 14)"/>
</clipPath>
</defs>
</svg>
