<svg xmlns="http://www.w3.org/2000/svg" version="1.1" xmlns:xlink="http://www.w3.org/1999/xlink" xmlns:svgjs="http://svgjs.com/svgjs" width="1000" height="1000"><rect width="1000" height="1000" rx="200" ry="200" fill="#2e453b"></rect><g transform="matrix(7.5,0,0,7.5,50.00033473968506,43.499671459198)"><svg xmlns="http://www.w3.org/2000/svg" version="1.1" xmlns:xlink="http://www.w3.org/1999/xlink" xmlns:svgjs="http://svgjs.com/svgjs" width="120" height="120"><svg width="120" height="120" viewBox="0 0 120 120" fill="none" xmlns="http://www.w3.org/2000/svg">
<path d="M76.0758 72.9295C76.0758 72.9295 70.7009 79.184 65.5215 79.9658C65.5215 79.9658 74.3167 72.7341 73.9258 64.6229C73.9258 64.6229 70.4077 72.2455 66.4009 74.0045C66.4009 74.0045 71.385 67.1637 72.6554 61.9843C73.9258 56.8048 71.4827 47.8141 71.4827 47.8141C71.4827 47.8141 70.7986 52.4072 67.7691 54.5571C67.7691 54.5571 70.4077 48.4981 70.4077 44.8823C70.4077 41.2665 68.5509 24.4577 66.6941 20.9396C64.8373 17.4214 61.6124 15.5647 58.7784 15.7601C55.9443 15.9555 50.4717 21.5259 49.299 36.8688C49.1957 38.2204 49.0837 39.4707 48.966 40.6391L55.1546 52.1322L48.5922 43.9292C47.3996 53.2908 45.8786 55.923 45.8786 59.5412C45.8786 63.9388 49.4944 70.291 52.4262 72.9295C52.4262 72.9295 46.9536 67.8478 45.1945 64.232C45.1945 64.232 46.7582 75.6659 53.9898 80.0635C53.9898 80.0635 45.5854 76.5454 43.9241 72.1477C43.9241 72.1477 44.1196 78.2067 53.1103 82.7998C53.1103 82.7998 47.54 81.8225 44.6082 79.184C44.6082 79.184 47.2468 83.9725 52.9148 85.5361C52.9148 85.5361 49.3967 84.9498 47.6376 86.9043C47.6376 86.9043 57.5079 85.7316 59.267 92.8656C59.267 92.8656 58.3874 34.1325 59.5602 29.5394C59.5602 29.5394 60.9283 101.368 60.8306 106.254C60.8306 106.254 61.6124 101.954 62.5897 88.6633C63.3715 86.7089 71.9713 87.0998 71.9713 87.0998C71.9713 87.0998 68.8441 85.1452 66.4009 85.3407C66.4009 85.3407 72.2645 84.9498 75.0985 79.7703C75.0985 79.7703 70.31 82.8975 66.0101 82.9953C66.0101 82.9953 74.6099 78.2067 76.0758 72.9295Z" fill="#EBECE7"></path>
</svg></svg></g></svg>