<?xml version="1.0" standalone="no"?>
<!DOCTYPE svg PUBLIC "-//W3C//DTD SVG 20010904//EN"
 "http://www.w3.org/TR/2001/REC-SVG-20010904/DTD/svg10.dtd">
<svg version="1.0" xmlns="http://www.w3.org/2000/svg"
 width="700.000000pt" height="700.000000pt" viewBox="0 0 700.000000 700.000000"
 preserveAspectRatio="xMidYMid meet">
<metadata>
Created by potrace 1.14, written by Peter Selinger 2001-2017
</metadata>
<g transform="translate(0.000000,700.000000) scale(0.100000,-0.100000)"
fill="#000000" stroke="none">
<path d="M3342 6049 c-242 -138 -422 -605 -467 -1209 -8 -109 -16 -174 -20
-178 -7 -7 17 -63 64 -150 109 -202 136 -252 184 -342 28 -52 63 -116 78 -142
16 -27 27 -48 24 -48 -2 0 -57 66 -121 148 -65 81 -120 149 -123 152 -4 3 -19
23 -36 45 -16 22 -40 51 -52 65 -13 14 -23 28 -23 32 0 5 -4 8 -9 8 -8 0 -13
-30 -27 -140 -6 -46 -26 -162 -39 -220 -3 -14 -10 -45 -14 -70 -5 -25 -25
-118 -45 -208 -39 -176 -46 -275 -27 -379 31 -165 133 -379 258 -543 53 -69
-104 96 -174 182 -54 67 -93 122 -122 173 -10 17 -11 15 -6 -15 59 -339 219
-649 424 -823 25 -20 41 -37 37 -37 -10 0 -134 67 -206 110 -140 86 -241 175
-305 270 -29 44 -35 48 -29 25 14 -58 35 -110 70 -173 43 -79 41 -77 144 -182
74 -75 121 -111 286 -217 23 -15 -107 20 -198 52 -80 29 -161 69 -203 99 -52
39 -58 40 -39 10 70 -109 201 -219 336 -284 45 -22 80 -40 77 -41 -2 0 -26 -3
-54 -5 -68 -6 -143 -31 -177 -59 l-27 -23 98 0 c262 0 461 -96 544 -261 l34
-69 -3 237 c-18 1201 -18 2808 1 3181 2 41 4 101 4 133 1 71 16 76 18 5 3
-216 14 -842 18 -1018 3 -118 7 -357 10 -530 6 -363 13 -750 20 -1135 11 -662
16 -962 20 -1274 2 -183 6 -335 8 -338 5 -4 14 51 22 142 4 33 8 70 10 83 2
12 7 57 10 100 4 42 8 84 10 92 2 8 6 56 10 105 4 50 8 101 10 115 2 14 7 70
11 125 4 55 9 108 10 118 1 9 2 35 3 57 1 34 6 43 33 60 65 39 192 58 403 59
l110 1 -41 24 c-52 29 -185 76 -222 77 -16 0 3 9 48 21 133 37 258 116 337
213 67 82 64 88 -22 43 -144 -75 -279 -122 -384 -133 l-56 -6 70 45 c241 154
437 349 499 500 15 36 10 33 -78 -51 -114 -109 -186 -165 -291 -227 -67 -39
-185 -86 -215 -86 -5 0 30 39 78 88 101 101 137 145 212 256 105 157 165 304
176 436 3 30 7 63 9 73 7 35 -13 15 -45 -45 -85 -162 -210 -327 -306 -406 -87
-71 -89 -61 -12 59 167 258 265 468 293 626 14 78 14 308 0 403 -16 107 -56
310 -66 337 -11 28 -12 27 -29 -36 -10 -35 -34 -96 -54 -135 -35 -69 -109
-166 -126 -166 -5 0 7 44 26 98 83 226 118 390 109 512 -11 172 -18 245 -30
340 -2 19 -7 62 -10 95 -3 33 -8 74 -10 90 -2 17 -7 48 -10 70 -3 22 -7 51
-10 65 -2 14 -7 48 -10 75 -18 156 -69 411 -104 526 -52 167 -209 323 -366
364 -94 24 -151 20 -213 -16z"/>
</g>
</svg>
